<svg style="width:0;height:0;display:none;" id="f8Project08">
  <svg id="search" viewBox="0 0 24 24" fill="none">
    <circle id="Ellipse_739" cx="11.7669" cy="11.7669" r="8.98856" stroke="currentColor" stroke-width="1.5" stroke-linecap="round" stroke-linejoin="round"/>
    <path id="Line_181" d="M18.0186 18.4854L21.5426 22.0002" stroke="currentColor" stroke-width="1.5" stroke-linecap="round" stroke-linejoin="round"/>
  </svg>
  <svg id="password" width="24" height="24" viewBox="0 0 24 24" fill="none">
    <path id="Stroke 1" fill-rule="evenodd" clip-rule="evenodd" d="M16.3341 2.75H7.66512C4.64412 2.75 2.75012 4.889 2.75012 7.916V16.084C2.75012 19.111 4.63512 21.25 7.66512 21.25H16.3331C19.3641 21.25 21.2501 19.111 21.2501 16.084V7.916C21.2501 4.889 19.3641 2.75 16.3341 2.75Z" stroke="currentColor" stroke-width="1.5" stroke-linecap="round" stroke-linejoin="round"/>
    <path id="Stroke 3" fill-rule="evenodd" clip-rule="evenodd" d="M10.6895 12.0004C10.6895 13.0234 9.86047 13.8524 8.83747 13.8524C7.81447 13.8524 6.98547 13.0234 6.98547 12.0004C6.98547 10.9774 7.81447 10.1484 8.83747 10.1484H8.84047C9.86147 10.1494 10.6895 10.9784 10.6895 12.0004Z" stroke="currentColor" stroke-width="1.5" stroke-linecap="round" stroke-linejoin="round"/>
    <path id="Stroke 5" d="M10.6925 12H17.0105V13.852" stroke="currentColor" stroke-width="1.5" stroke-linecap="round" stroke-linejoin="round"/>
    <path id="Stroke 7" d="M14.1818 13.852V12" stroke="currentColor" stroke-width="1.5" stroke-linecap="round" stroke-linejoin="round"/>
  </svg>
  <svg id="close-square" viewBox="0 0 24 24" fill="none">
    <path id="Stroke 1" d="M14.3955 9.59473L9.60352 14.3867" stroke="currentColor" stroke-width="1.5" stroke-linecap="round" stroke-linejoin="round"/>
    <path id="Stroke 2" d="M14.3975 14.3895L9.6015 9.59253" stroke="currentColor" stroke-width="1.5" stroke-linecap="round" stroke-linejoin="round"/>
    <path id="Stroke 3" fill-rule="evenodd" clip-rule="evenodd" d="M16.335 2.75H7.66598C4.64498 2.75 2.75098 4.889 2.75098 7.916V16.084C2.75098 19.111 4.63598 21.25 7.66598 21.25H16.334C19.365 21.25 21.251 19.111 21.251 16.084V7.916C21.251 4.889 19.365 2.75 16.335 2.75Z" stroke="currentColor" stroke-width="1.5" stroke-linecap="round" stroke-linejoin="round"/>
  </svg>
  <svg id="tick-square" viewBox="0 0 24 24" fill="none">
    <path id="Stroke 1" fill-rule="evenodd" clip-rule="evenodd" d="M16.334 2.75H7.665C4.644 2.75 2.75 4.889 2.75 7.916V16.084C2.75 19.111 4.635 21.25 7.665 21.25H16.333C19.364 21.25 21.25 19.111 21.25 16.084V7.916C21.25 4.889 19.364 2.75 16.334 2.75Z" stroke="currentColor" stroke-width="1.5" stroke-linecap="round" stroke-linejoin="round"/>
    <path id="Stroke 3" d="M8.43951 12L10.8135 14.373L15.5595 9.62695" stroke="currentColor" stroke-width="1.5" stroke-linecap="round" stroke-linejoin="round"/>
  </svg>
  <svg id="info-quare" viewBox="0 0 24 24" fill="none">
    <path id="Stroke 1" fill-rule="evenodd" clip-rule="evenodd" d="M16.3341 2.75H7.66509C4.64409 2.75 2.75009 4.889 2.75009 7.916V16.084C2.75009 19.111 4.63509 21.25 7.66509 21.25H16.3331C19.3641 21.25 21.2501 19.111 21.2501 16.084V7.916C21.2501 4.889 19.3641 2.75 16.3341 2.75Z" stroke="currentColor" stroke-width="1.5" stroke-linecap="round" stroke-linejoin="round"/>
    <path id="Stroke 3" d="M11.9942 16V12" stroke="currentColor" stroke-width="1.5" stroke-linecap="round" stroke-linejoin="round"/>
    <path id="Stroke 2" d="M11.9902 8.2041H12.0002" stroke="currentColor" stroke-width="2" stroke-linecap="round" stroke-linejoin="round"/>
  </svg>
  <svg id="lock" viewBox="0 0 24 24" fill="none">
    <path id="Stroke 1" d="M16.4228 9.44804V7.30104C16.4228 4.78804 14.3848 2.75004 11.8718 2.75004C9.35876 2.73904 7.31276 4.76704 7.30176 7.28104V7.30104V9.44804" stroke="currentColor" stroke-width="1.5" stroke-linecap="round" stroke-linejoin="round"/>
    <path id="Stroke 3" fill-rule="evenodd" clip-rule="evenodd" d="M15.683 21.25H8.042C5.948 21.25 4.25 19.553 4.25 17.458V13.169C4.25 11.074 5.948 9.37695 8.042 9.37695H15.683C17.777 9.37695 19.475 11.074 19.475 13.169V17.458C19.475 19.553 17.777 21.25 15.683 21.25Z" stroke="currentColor" stroke-width="1.5" stroke-linecap="round" stroke-linejoin="round"/>
    <path id="Stroke 5" d="M11.8623 14.2031V16.4241" stroke="currentColor" stroke-width="1.5" stroke-linecap="round" stroke-linejoin="round"/>
  </svg>
  <svg id="document" viewBox="0 0 24 24" fill="none">
    <path id="Stroke 1" d="M18 4.5H6" stroke="currentColor" stroke-width="2" stroke-linecap="round" stroke-linejoin="round"/>
    <path id="Stroke 2" d="M18 12H6" stroke="currentColor" stroke-width="2" stroke-linecap="round" stroke-linejoin="round"/>
    <path id="Stroke 3" d="M11 19H6" stroke="currentColor" stroke-width="2" stroke-linecap="round" stroke-linejoin="round"/>
  </svg>
  <svg id="indian" viewBox="0 0 24 24" fill="none">
    <path d="M11.0736 13.8292C11.0736 12.6764 10.0977 11.7363 8.90108 11.7363C7.70447 11.7363 6.72852 12.6765 6.72852 13.8292C6.72852 14.9819 7.70447 15.9221 8.90108 15.9221C10.1026 15.9221 11.0736 14.9819 11.0736 13.8292ZM8.1164 13.8292C8.1164 13.4135 8.4695 13.0733 8.90108 13.0733C9.33265 13.0733 9.68575 13.4135 9.68575 13.8292C9.68575 14.245 9.33265 14.5851 8.90108 14.5851C8.4695 14.5851 8.1164 14.2497 8.1164 13.8292Z" fill="currentColor"/>
    <path d="M15.1638 11.7393C13.9671 11.7393 12.9912 12.6794 12.9912 13.8321C12.9912 14.9849 13.9672 15.925 15.1638 15.925C16.3604 15.925 17.3363 14.9849 17.3363 13.8321C17.3314 12.6747 16.3604 11.7393 15.1638 11.7393ZM15.1638 14.5833C14.7322 14.5833 14.3791 14.2432 14.3791 13.8274C14.3791 13.4117 14.7322 13.0715 15.1638 13.0715C15.5953 13.0715 15.9484 13.4117 15.9484 13.8274C15.9484 14.2432 15.5953 14.5833 15.1638 14.5833Z" fill="currentColor"/>
    <path d="M12.0002 0C5.93358 0 1 4.75741 1 10.6016C1 13.337 2.07402 15.9166 4.02099 17.8962C5.23724 21.4584 8.35633 24 12 24C15.6437 24 18.763 21.4583 19.979 17.8915C21.926 15.9167 23 13.3323 23 10.5968C23 4.75741 18.0664 0 11.9998 0H12.0002ZM3.48181 14.9102C3.1189 14.2488 2.84425 13.5449 2.6579 12.8126C3.01591 12.6756 3.369 12.5339 3.70739 12.3921C3.53084 13.2047 3.45237 14.041 3.4818 14.9102L3.48181 14.9102ZM13.045 1.38913C12.7948 3.02848 11.2942 7.96069 2.42228 11.4711C1.82888 4.96561 7.75312 0.761082 13.045 1.38913ZM12.0004 22.6675C8.06228 22.6675 4.8549 19.0391 4.8549 14.5793C4.8549 13.5636 5.02654 12.5809 5.34534 11.6503C8.55761 10.0676 10.6417 8.30068 11.9904 6.65657C13.0693 8.05028 15.5558 10.866 18.7583 11.9997C19.0084 12.8265 19.1409 13.691 19.1409 14.5792C19.1409 19.039 15.9384 22.6673 12.0003 22.6673L12.0004 22.6675ZM20.2883 12.3872C20.661 12.4439 21.0386 12.4817 21.4212 12.4817C21.2397 13.3321 20.9357 14.1447 20.5188 14.9101C20.5581 14.0975 20.4698 13.2565 20.2883 12.3873L20.2883 12.3872ZM21.6026 11.1447C17.4095 11.225 13.8146 6.81233 12.8439 5.50398C13.9032 3.88351 14.2857 2.47568 14.4132 1.62998C18.9006 2.79691 21.9021 6.76534 21.6026 11.1448V11.1447Z" fill="currentColor"/>
    <path d="M15.0754 19.5634C15.3893 19.3508 15.4629 18.9351 15.2422 18.6327C15.0215 18.3304 14.5899 18.2595 14.276 18.4721C12.9127 19.3933 11.0785 19.3933 9.71506 18.4721C9.40119 18.2595 8.96962 18.3351 8.74893 18.6327C8.52824 18.9351 8.6067 19.3508 8.91567 19.5634C10.8577 20.8248 13.1627 20.7965 15.0756 19.5634H15.0754Z" fill="currentColor"/>
  </svg>
  <svg id="medal" viewBox="0 0 24 24" fill="none">
    <path d="M12.0002 1C7.58939 1 4 4.52677 4 8.85904C4 11.1679 5.02576 13.2404 6.64565 14.6796V22.3542C6.64621 22.5889 6.77599 22.8049 6.98481 22.9186C7.19364 23.0326 7.44898 23.0264 7.65193 22.9028L12 20.2523L16.3532 22.9028C16.5562 23.0264 16.8115 23.0326 17.0204 22.9186C17.2292 22.8049 17.359 22.5889 17.3595 22.3542V14.6759C18.9766 13.237 20 11.1657 20 8.85904C20 4.52658 16.4108 1 11.9998 1H12.0002ZM12.0002 2.29428C15.6988 2.29428 18.6827 5.22628 18.6827 8.85904C18.6827 12.4918 15.699 15.4229 12.0002 15.4229C8.30136 15.4229 5.31767 12.4922 5.31767 8.85904C5.31767 5.22591 8.30136 2.29428 12.0002 2.29428ZM11.959 4.17754C11.693 4.19416 11.4632 4.36461 11.3761 4.60982L10.559 6.90133L8.0703 6.95063C7.78941 6.95713 7.54346 7.13552 7.45668 7.39572C7.36973 7.65591 7.4611 7.94121 7.68426 8.10715L9.66722 9.57334L8.94791 11.8939C8.86795 12.1559 8.96629 12.4387 9.19351 12.5992C9.42053 12.7599 9.72698 12.7634 9.95804 12.6081L12.0002 11.2241L14.0436 12.6081C14.2747 12.7653 14.5826 12.763 14.8108 12.6019C15.0391 12.441 15.1376 12.1568 15.0563 11.894L14.3358 9.57337L16.32 8.10718C16.5433 7.94106 16.6345 7.65541 16.5474 7.39524C16.4603 7.13486 16.2137 6.95665 15.9327 6.95069L13.444 6.90139L12.6269 4.60988C12.5295 4.33596 12.2562 4.15901 11.9591 4.17761L11.959 4.17754ZM12.0002 6.78635L12.345 7.74693C12.4362 8.00171 12.6807 8.17415 12.9576 8.1792L14.0037 8.20069L13.1686 8.81621C12.9483 8.97926 12.8553 9.25859 12.9357 9.51641L13.2381 10.4909L12.3798 9.90951C12.1524 9.75531 11.8505 9.75531 11.6232 9.90951L10.7649 10.4909L11.0673 9.51641C11.1476 9.25857 11.0546 8.97924 10.8344 8.81621L9.99924 8.20069L11.0454 8.1792C11.3224 8.17415 11.5667 8.00171 11.6579 7.74693L12.0002 6.78635ZM16.042 15.629V21.193L12.3502 18.9432C12.1373 18.8136 11.8682 18.8136 11.6553 18.9432L7.96352 21.193V15.6318C9.15032 16.317 10.5272 16.7175 12.0002 16.7175C13.4752 16.7175 14.8541 16.3161 16.042 15.6293V15.629Z" fill="currentColor"/>
  </svg>
  <svg id='gift-box' viewBox="0 0 24 24" fill="none">
    <path d="M19 12V21H5V12" stroke="currentColor" stroke-width="1.5" stroke-linecap="round" stroke-linejoin="round"/>
    <path d="M21 8H3V12H21V8Z" stroke="currentColor" stroke-width="1.5" stroke-linecap="round" stroke-linejoin="round"/>
    <path d="M12 21V8" stroke="currentColor" stroke-width="1.5" stroke-linecap="round" stroke-linejoin="round"/>
    <path d="M12 8H8.14286C7.57454 8 7.02949 7.73661 6.62763 7.26777C6.22576 6.79893 6 6.16304 6 5.5C6 4.83696 6.22576 4.20107 6.62763 3.73223C7.02949 3.26339 7.57454 3 8.14286 3C11.1429 3 12 8 12 8Z" stroke="currentColor" stroke-width="1.5" stroke-linecap="round" stroke-linejoin="round"/>
    <path d="M12 8H15.8571C16.4255 8 16.9705 7.73661 17.3724 7.26777C17.7742 6.79893 18 6.16304 18 5.5C18 4.83696 17.7742 4.20107 17.3724 3.73223C16.9705 3.26339 16.4255 3 15.8571 3C12.8571 3 12 8 12 8Z" stroke="currentColor" stroke-width="1.5" stroke-linecap="round" stroke-linejoin="round"/>
  </svg>
  <svg id="dollars" viewBox="0 0 24 24" fill="none">
    <path d="M11.9992 12.5896C10.0774 12.5896 8.51444 11.0265 8.51444 9.10488C8.51444 7.18306 10.0775 5.62012 11.9992 5.62012C13.921 5.62012 15.484 7.18322 15.484 9.10488C15.484 9.43666 15.215 9.70577 14.8831 9.70577C14.5513 9.70577 14.2822 9.43682 14.2822 9.10488C14.2822 7.84587 13.2581 6.82173 11.999 6.82173C10.74 6.82173 9.7159 7.84587 9.7159 9.10488C9.7159 10.3639 10.74 11.388 11.999 11.388C12.3308 11.388 12.5999 11.657 12.5999 11.9889C12.6001 12.3207 12.331 12.5896 11.9992 12.5896Z" fill="currentColor"/>
    <path d="M11.9992 18.3574C10.0774 18.3574 8.51444 16.7943 8.51444 14.8726C8.51444 14.5408 8.7834 14.2717 9.11533 14.2717C9.44711 14.2717 9.71621 14.5407 9.71621 14.8726C9.71621 16.1316 10.7404 17.1558 11.9994 17.1558C13.2584 17.1558 14.2825 16.1316 14.2825 14.8726C14.2825 13.6136 13.2584 12.5895 11.9994 12.5895C11.6676 12.5895 11.3985 12.3205 11.3985 11.9886C11.3985 11.6568 11.6674 11.3877 11.9994 11.3877C13.9212 11.3877 15.4841 12.9508 15.4841 14.8725C15.484 16.7943 13.921 18.3574 11.9992 18.3574Z" fill="currentColor"/>
    <path d="M12.0001 6.82085C11.6683 6.82085 11.3992 6.5519 11.3992 6.21997V3.99053C11.3992 3.65876 11.6682 3.38965 12.0001 3.38965C12.3319 3.38965 12.601 3.6586 12.601 3.99053V6.22108C12.601 6.55193 12.3319 6.82089 12.0001 6.82089V6.82085Z" fill="currentColor"/>
    <path d="M12.0001 20.612C11.6683 20.612 11.3992 20.343 11.3992 20.0111V17.7806C11.3992 17.4488 11.6682 17.1797 12.0001 17.1797C12.3319 17.1797 12.601 17.4486 12.601 17.7806V20.0111C12.601 20.3429 12.3319 20.612 12.0001 20.612Z" fill="currentColor"/>
    <path d="M12 23C5.93449 23 1 18.0647 1 12C1 5.93528 5.93409 1 12 1C18.0659 1 23 5.9341 23 12C23 18.0659 18.0659 23 12 23ZM12 2.20193C6.59726 2.20193 2.20193 6.59726 2.20193 12C2.20193 17.4027 6.59726 21.7981 12 21.7981C17.4027 21.7981 21.7981 17.402 21.7981 12C21.7981 6.59805 17.4027 2.20193 12 2.20193Z" fill="currentColor"/>
  </svg>
  <svg id="half-shield" viewBox="0 0 24 24" fill="none">
    <path d="M4 3H20C20.5304 3 21.0391 3.21071 21.4142 3.58579C21.7893 3.96086 22 4.46957 22 5V11C22 13.6522 20.9464 16.1957 19.0711 18.0711C17.1957 19.9464 14.6522 21 12 21C10.6868 21 9.38642 20.7413 8.17317 20.2388C6.95991 19.7362 5.85752 18.9997 4.92893 18.0711C3.05357 16.1957 2 13.6522 2 11V5C2 4.46957 2.21071 3.96086 2.58579 3.58579C2.96086 3.21071 3.46957 3 4 3V3Z" stroke="currentColor" stroke-width="1.5" stroke-linecap="round" stroke-linejoin="round"/>
    <path d="M8 10L12 14L16 10" stroke="currentColor" stroke-width="1.5" stroke-linecap="round" stroke-linejoin="round"/>
  </svg>
  <svg id="star-outlight" viewBox="0 0 24 24" fill="none">
    <path id="Stroke 1" fill-rule="evenodd" clip-rule="evenodd" d="M13.1043 4.17701L14.9317 7.82776C15.1108 8.18616 15.4565 8.43467 15.8573 8.49218L19.9453 9.08062C20.9554 9.22644 21.3573 10.4505 20.6263 11.1519L17.6702 13.9924C17.3797 14.2718 17.2474 14.6733 17.3162 15.0676L18.0138 19.0778C18.1856 20.0698 17.1298 20.8267 16.227 20.3574L12.5732 18.4627C12.215 18.2768 11.786 18.2768 11.4268 18.4627L7.773 20.3574C6.87023 20.8267 5.81439 20.0698 5.98724 19.0778L6.68385 15.0676C6.75257 14.6733 6.62033 14.2718 6.32982 13.9924L3.37368 11.1519C2.64272 10.4505 3.04464 9.22644 4.05466 9.08062L8.14265 8.49218C8.54354 8.43467 8.89028 8.18616 9.06937 7.82776L10.8957 4.17701C11.3477 3.27433 12.6523 3.27433 13.1043 4.17701Z" stroke="currentColor" stroke-width="1.5" stroke-linecap="round" stroke-linejoin="round"/>
  </svg>
  <svg id="bread" viewBox="0 0 24 24" fill="none">
    <path d="M4.02983 5C2.36256 5 1 6.43233 1 8.1854C1 9.19008 1.44792 10.0863 2.14029 10.6677V19.3199V19.3197C2.14029 19.6954 2.43006 20 2.78735 20H21.2127C21.5699 20 21.8597 19.6954 21.8597 19.3197V10.668C22.5521 10.0866 23 9.19037 23 8.1857C23 6.43282 21.6376 5.0003 19.9702 5.0003L4.02983 5ZM4.02983 6.36056H12.2659C13.2388 6.36056 14.0016 7.16251 14.0016 8.1854C14.0016 8.85183 13.6709 9.41345 13.1704 9.73556C12.9783 9.85913 12.8613 10.0789 12.8613 10.3156V18.6393H3.43424V10.3156C3.43424 10.079 3.31707 9.85916 3.12515 9.73556C2.6247 9.41346 2.29397 8.85179 2.29397 8.1854C2.29397 7.16251 3.05675 6.36056 4.02969 6.36056H4.02983ZM14.7464 6.36056H19.9704C20.9434 6.36056 21.7062 7.16251 21.7062 8.1854C21.7062 8.85183 21.3754 9.41345 20.875 9.73556H20.8748C20.6829 9.85913 20.5657 10.0789 20.5657 10.3156V18.6393H14.1557V10.6679C14.8481 10.0865 15.296 9.19027 15.296 8.1856C15.296 7.50799 15.0924 6.87839 14.7464 6.36075L14.7464 6.36056ZM7.22257 9.7773H7.22239C7.05431 9.78243 6.8949 9.85626 6.77754 9.98306L5.0366 11.8134C4.91239 11.9404 4.8418 12.1142 4.84053 12.2965C4.83927 12.4787 4.90751 12.6537 5.02992 12.7824C5.15251 12.9113 5.31897 12.983 5.49229 12.9817C5.66561 12.9804 5.83098 12.9061 5.95176 12.7754L7.6927 10.945V10.9452C7.88408 10.7495 7.94149 10.4505 7.8375 10.192C7.7335 9.93371 7.48923 9.76896 7.22238 9.7773H7.22257ZM9.40763 11.2294H9.40745C9.23937 11.2347 9.07995 11.3083 8.96278 11.4351L6.41792 14.1106C6.29353 14.2376 6.22293 14.4117 6.22167 14.5937C6.22041 14.7759 6.28865 14.9509 6.41124 15.0798C6.53364 15.2085 6.70028 15.2803 6.87342 15.2789C7.04674 15.2776 7.21229 15.2034 7.33289 15.0728L9.87775 12.3973C10.0691 12.2016 10.1267 11.9026 10.0227 11.6441C9.91855 11.3858 9.67428 11.221 9.40747 11.2294L9.40763 11.2294ZM10.7888 13.5266C10.6207 13.5319 10.4611 13.6058 10.3439 13.7326L8.60297 15.5629V15.5627C8.47894 15.6897 8.40853 15.8637 8.40726 16.0456C8.40618 16.2276 8.47442 16.4026 8.59683 16.5313C8.71924 16.66 8.88552 16.7317 9.05865 16.7306C9.23179 16.7293 9.39716 16.6552 9.51795 16.5248L11.2589 14.6945C11.4503 14.499 11.5079 14.1999 11.4039 13.9415C11.2997 13.683 11.0554 13.5185 10.7887 13.5266L10.7888 13.5266Z" fill="currentColor"/>
  </svg>
  <svg id="computer" viewBox="0 0 24 24" fill="none">
    <path d="M12.7 7H2.3C1.58203 7 1 7.57563 1 8.28571V14.7143C1 15.4244 1.58203 16 2.3 16H12.7C13.418 16 14 15.4244 14 14.7143V8.28571C14 7.57563 13.418 7 12.7 7Z" stroke="currentColor" stroke-width="1.5" stroke-linecap="round" stroke-linejoin="round"/>
    <path d="M22 7H17C16.4477 7 16 7.58203 16 8.3V18.7C16 19.418 16.4477 20 17 20H22C22.5523 20 23 19.418 23 18.7V8.3C23 7.58203 22.5523 7 22 7Z" stroke="currentColor" stroke-width="1.5" stroke-linecap="round" stroke-linejoin="round"/>
    <path d="M19.5002 10.5H19.5102" stroke="currentColor" stroke-width="2" stroke-linecap="round" stroke-linejoin="round"/>
    <path d="M4 20H11" stroke="currentColor" stroke-width="1.5" stroke-linecap="round" stroke-linejoin="round"/>
    <path d="M7.5 16V20" stroke="currentColor" stroke-width="1.5" stroke-linecap="round" stroke-linejoin="round"/>
  </svg>
  <svg id="smartphone" viewBox="0 0 24 24" fill="none">
    <path d="M17 2H7C5.89543 2 5 2.89543 5 4V20C5 21.1046 5.89543 22 7 22H17C18.1046 22 19 21.1046 19 20V4C19 2.89543 18.1046 2 17 2Z" stroke="currentColor" stroke-width="1.5" stroke-linecap="round" stroke-linejoin="round"/>
    <path d="M12 18H12.01" stroke="currentColor" stroke-width="2" stroke-linecap="round" stroke-linejoin="round"/>
  </svg>
  <svg id='beverage' viewBox="0 0 24 24" fill="none">
    <path d="M3.57697 10.4286H3.66345L5.88896 22.56C5.9351 22.8115 6.17717 23 6.45978 23H15.6845C15.967 23 16.2092 22.8167 16.2554 22.56L18.3886 10.9368C18.4925 10.7639 18.5789 10.5859 18.6596 10.4077C18.9365 10.3658 19.144 10.1614 19.144 9.89961V7.80432C19.144 7.73101 19.1266 7.6577 19.092 7.59474C18.9075 6.09663 18.0658 4.75566 16.7974 3.73949L17.979 2.04774H20.4234C20.7406 2.04774 21 1.81202 21 1.52387C21 1.23571 20.7406 1 20.4234 1H17.6618C17.4659 1 17.2813 1.09436 17.1717 1.24624L15.8745 3.11107C14.5311 2.31503 12.865 1.83831 11.0719 1.83831C6.92082 1.83831 3.43887 4.36309 3.05193 7.60005C3.02317 7.66284 3 7.73633 3 7.80964V9.90493C3.00019 10.1929 3.25963 10.4286 3.5768 10.4286L3.57697 10.4286ZM15.194 21.9525H6.94378L4.82792 10.4286H17.3039L15.194 21.9525ZM11.0717 2.88571C12.6399 2.88571 14.0985 3.29435 15.2689 3.99096L14.2657 5.43663C14.0985 5.68287 14.1734 6.00243 14.4445 6.15958C14.5425 6.21202 14.6462 6.23815 14.75 6.23815C14.9404 6.23815 15.1305 6.14905 15.2402 5.99191L16.1799 4.63532C17.0331 5.36334 17.6385 6.26951 17.875 7.28061H4.26885C4.84526 4.77666 7.69911 2.88569 11.0717 2.88569L11.0717 2.88571ZM4.15327 8.33317H17.9902V9.38073H4.15327V8.33317Z" fill="currentColor"/>
  </svg>
  <svg id="snack" viewBox="0 0 24 24" fill="none">
    <path d="M10.9922 22.0429H3.69555L2.91451 7.68834H13.3924L13.2972 9.33428H13.2971C13.2866 9.46028 13.3273 9.58527 13.4097 9.68073C13.4923 9.77619 13.6097 9.83426 13.7353 9.8416C13.8618 9.85796 13.9894 9.81924 14.0859 9.73513C14.1823 9.65102 14.2384 9.52953 14.2401 9.40137L14.3449 7.68831H14.8497C14.9761 7.68831 15.0972 7.63791 15.1866 7.54813C15.2758 7.45851 15.3259 7.33669 15.3259 7.20986C15.3259 7.08303 15.2758 6.96121 15.1866 6.87159C15.0972 6.7818 14.9761 6.73141 14.8497 6.73141H8.62971V4.15708C8.63021 3.80162 8.80944 3.47054 9.10593 3.2768L11.2396 1.87966V1.8795C11.3461 1.81107 11.4203 1.70227 11.4456 1.57777C11.4707 1.45328 11.4444 1.32395 11.373 1.21931C11.2306 0.997527 10.9368 0.933444 10.7157 1.07563L8.55345 2.47293C8.00013 2.85242 7.67159 3.48407 7.67708 4.15711V6.73144H1.47623C1.21327 6.73144 1 6.94555 1 7.20988C1 7.33671 1.05017 7.45853 1.13953 7.54815C1.2289 7.63794 1.34999 7.68833 1.47623 7.68833H1.96211L2.76225 22.5406C2.77238 22.7974 2.98267 23.0002 3.23847 23H10.9825C11.1088 23 11.2299 22.9496 11.3192 22.8598C11.4086 22.77 11.4588 22.6484 11.4588 22.5214C11.4588 22.2609 11.2513 22.0481 10.992 22.0429L10.9922 22.0429Z" fill="currentColor"/>
    <path d="M19.4706 16.3011L22.9188 11.3056C23.066 11.0863 23.0085 10.7886 22.7901 10.6406C22.5718 10.4926 22.2755 10.5505 22.1282 10.7698L18.318 16.2724H16.3559C16.3241 16.131 16.3082 15.9865 16.3082 15.8416C16.303 15.2088 16.5479 14.5997 16.9887 14.1478C17.4298 13.6957 18.0311 13.4377 18.6609 13.4302C18.9108 13.4272 19.1593 13.4693 19.3943 13.5545C19.6466 13.6368 19.918 13.5005 20.0039 13.2483C20.0134 13.1817 20.0134 13.114 20.0039 13.0474V12.9805V12.9803C20.0347 11.7974 19.4347 10.6878 18.4304 10.0699C17.4259 9.45172 16.1696 9.41887 15.1346 9.98359C14.0996 10.5485 13.4431 11.6252 13.4124 12.8081C12.834 13.0806 12.3455 13.5138 12.0045 14.0565C11.6635 14.5992 11.4844 15.2287 11.4883 15.8704C11.4912 16.0951 11.5134 16.3194 11.555 16.5402C11.5109 16.629 11.4943 16.7291 11.5073 16.8274L12.4597 22.5693H12.4599C12.4971 22.7997 12.6943 22.9696 12.9267 22.9713H20.547C20.7794 22.9696 20.9766 22.7997 21.0138 22.5693L21.9662 16.8274C21.981 16.7218 21.9609 16.6142 21.9091 16.5212C21.9538 16.2973 21.9793 16.07 21.9853 15.8417C21.9842 15.4909 21.9295 15.1424 21.8234 14.8082C21.7445 14.544 21.4672 14.394 21.2043 14.4733C20.9411 14.5525 20.792 14.8311 20.8709 15.0952C20.9498 15.3364 20.9915 15.588 20.9946 15.8417C21.0117 15.9943 21.018 16.1478 21.0137 16.3012L19.4706 16.3011ZM16.7273 10.5593C17.2723 10.5623 17.7995 10.7544 18.2196 11.1031C18.6399 11.4521 18.9269 11.936 19.0324 12.4732H18.6609C17.953 12.4759 17.2661 12.7149 16.7082 13.1527C16.1563 12.7427 15.4896 12.5182 14.8032 12.5116H14.4316C14.5306 11.9697 14.8135 11.4791 15.2321 11.1231C15.6505 10.7672 16.1789 10.5679 16.7272 10.5592L16.7273 10.5593ZM14.8222 13.4301V13.4303C15.264 13.4298 15.6969 13.556 16.07 13.7939C15.6338 14.3725 15.3964 15.0778 15.3938 15.8035C15.383 15.9469 15.383 16.0907 15.3938 16.2341H12.4409C12.4311 16.1004 12.4311 15.9661 12.4409 15.8322C12.4384 15.2026 12.6829 14.5975 13.1216 14.1477C13.5601 13.6982 14.1576 13.4403 14.7842 13.4303L14.8222 13.4301ZM20.1755 22.0429H13.3172L12.5265 17.258H20.928L20.1755 22.0429Z" fill="currentColor"/>
  </svg>
  <svg id="arrow-right" viewBox="0 0 24 24" fill="none">
    <path d="M8.5 5L15.5 12L8.5 19" stroke="currentColor" stroke-width="1.5" stroke-linecap="round" stroke-linejoin="round"/>
  </svg>
  <svg id="arrow-down" viewBox="0 0 24 24" fill="none">
    <path d="M19 8.5L12 15.5L5 8.5" stroke="currentColor" stroke-width="1.5" stroke-linecap="round" stroke-linejoin="round"/>
  </svg>
  <svg id="arrow-left" viewBox="0 0 24 24" fill="none">
    <path d="M15.5 19L8.5 12L15.5 5" stroke="currentColor" stroke-width="1.5" stroke-linecap="round" stroke-linejoin="round"/>
  </svg>
  <svg id="danger" viewBox="0 0 24 24" fill="none">
    <path id="Stroke 1" fill-rule="evenodd" clip-rule="evenodd" d="M12.0001 2.75012C17.1081 2.75012 21.2501 6.89112 21.2501 12.0001C21.2501 17.1081 17.1081 21.2501 12.0001 21.2501C6.89109 21.2501 2.75009 17.1081 2.75009 12.0001C2.75009 6.89112 6.89109 2.75012 12.0001 2.75012Z" stroke="currentColor" stroke-width="1.5" stroke-linecap="round" stroke-linejoin="round"/>
    <path id="Stroke 3" d="M11.9952 8.20422V12.6232" stroke="currentColor" stroke-width="1.5" stroke-linecap="round" stroke-linejoin="round"/>
    <path id="Stroke 5" d="M11.995 15.7961H12.005" stroke="currentColor" stroke-width="2" stroke-linecap="round" stroke-linejoin="round"/>
  </svg>
  <svg id="profile" viewBox="0 0 24 24" fill="none">
    <path id="Stroke 1" fill-rule="evenodd" clip-rule="evenodd" d="M11.9848 15.3457C8.11716 15.3457 4.8143 15.9305 4.8143 18.2724C4.8143 20.6143 8.0962 21.22 11.9848 21.22C15.8524 21.22 19.1543 20.6343 19.1543 18.2933C19.1543 15.9524 15.8733 15.3457 11.9848 15.3457Z" stroke="currentColor" stroke-width="1.5" stroke-linecap="round" stroke-linejoin="round"/>
    <path id="Stroke 3" fill-rule="evenodd" clip-rule="evenodd" d="M11.9848 12.0059C14.5229 12.0059 16.58 9.94779 16.58 7.40969C16.58 4.8716 14.5229 2.81445 11.9848 2.81445C9.44667 2.81445 7.38858 4.8716 7.38858 7.40969C7.38001 9.93922 9.42382 11.9973 11.9524 12.0059H11.9848Z" stroke="currentColor" stroke-width="1.42857" stroke-linecap="round" stroke-linejoin="round"/>
  </svg>
  <svg id="buy" viewBox="0 0 24 24" fill="none">
    <path id="Stroke 1" d="M2.75012 3.24988L4.83012 3.60988L5.79312 15.0829C5.87012 16.0199 6.65312 16.7389 7.59312 16.7359H18.5021C19.3991 16.7379 20.1601 16.0779 20.2871 15.1899L21.2361 8.63188C21.3421 7.89888 20.8331 7.21888 20.1011 7.11288C20.0371 7.10388 5.16412 7.09888 5.16412 7.09888" stroke="currentColor" stroke-width="1.5" stroke-linecap="round" stroke-linejoin="round"/>
    <path id="Stroke 3" d="M14.1251 10.7948H16.8981" stroke="currentColor" stroke-width="1.5" stroke-linecap="round" stroke-linejoin="round"/>
    <path id="Stroke 5" fill-rule="evenodd" clip-rule="evenodd" d="M7.15447 20.202C7.45547 20.202 7.69847 20.446 7.69847 20.746C7.69847 21.047 7.45547 21.291 7.15447 21.291C6.85347 21.291 6.61047 21.047 6.61047 20.746C6.61047 20.446 6.85347 20.202 7.15447 20.202Z" fill="currentColor" stroke="currentColor" stroke-width="1.5" stroke-linecap="round" stroke-linejoin="round"/>
    <path id="Stroke 7" fill-rule="evenodd" clip-rule="evenodd" d="M18.4347 20.202C18.7357 20.202 18.9797 20.446 18.9797 20.746C18.9797 21.047 18.7357 21.291 18.4347 21.291C18.1337 21.291 17.8907 21.047 17.8907 20.746C17.8907 20.446 18.1337 20.202 18.4347 20.202Z" fill="currentColor" stroke="currentColor" stroke-width="1.5" stroke-linecap="round" stroke-linejoin="round"/>
  </svg>
  <svg id="bag" viewBox="0 0 24 24" fill="none">
    <path id="Path_33955" fill-rule="evenodd" clip-rule="evenodd" d="M16.5134 21.5003H8.16555C5.09919 21.5003 2.74679 20.3927 3.41498 15.9351L4.19301 9.89387C4.60491 7.66962 6.02367 6.81836 7.26852 6.81836H17.447C18.7102 6.81836 20.0466 7.73369 20.5225 9.89387L21.3006 15.9351C21.8681 19.8893 19.5797 21.5003 16.5134 21.5003Z" stroke="currentColor" stroke-width="1.5" stroke-linecap="round" stroke-linejoin="round"/>
    <path id="Path_33956" d="M16.6502 6.59873C16.6502 4.21265 14.716 2.27836 12.3299 2.27836V2.27836C11.1809 2.27349 10.0773 2.72652 9.26308 3.53727C8.44889 4.34803 7.9912 5.44971 7.99121 6.59873H7.99121" stroke="currentColor" stroke-width="1.5" stroke-linecap="round" stroke-linejoin="round"/>
    <path id="Line_192" d="M15.296 11.1022H15.2502" stroke="currentColor" stroke-width="1.5" stroke-linecap="round" stroke-linejoin="round"/>
    <path id="Line_193" d="M9.46492 11.1022H9.41916" stroke="currentColor" stroke-width="1.5" stroke-linecap="round" stroke-linejoin="round"/>
  </svg>
  <svg id="plus" viewBox="0 0 24 24" fill="none">
    <path id="Line_185" d="M11.9996 8.32715V15.6535" stroke="currentColor" stroke-width="1.5" stroke-linecap="round" stroke-linejoin="round"/>
    <path id="Line_186" d="M15.6663 11.9904H8.33301" stroke="currentColor" stroke-width="1.5" stroke-linecap="round" stroke-linejoin="round"/>
    <path id="Path" fill-rule="evenodd" clip-rule="evenodd" d="M16.6857 2H7.31429C4.04762 2 2 4.31208 2 7.58516V16.4148C2 19.6879 4.0381 22 7.31429 22H16.6857C19.9619 22 22 19.6879 22 16.4148V7.58516C22 4.31208 19.9619 2 16.6857 2Z" stroke="currentColor" stroke-width="1.5" stroke-linecap="round" stroke-linejoin="round"/>
  </svg>
  <svg id="message" viewBox="0 0 24 24" fill="none">
    <path id="Stroke 1" d="M17.9024 8.85156L13.4591 12.4646C12.6196 13.1306 11.4384 13.1306 10.5989 12.4646L6.11816 8.85156" stroke="currentColor" stroke-width="1.5" stroke-linecap="round" stroke-linejoin="round"/>
    <path id="Stroke 3" fill-rule="evenodd" clip-rule="evenodd" d="M16.9089 21C19.9502 21.0084 22 18.5095 22 15.4384V8.57001C22 5.49883 19.9502 3 16.9089 3H7.09114C4.04979 3 2 5.49883 2 8.57001V15.4384C2 18.5095 4.04979 21.0084 7.09114 21H16.9089Z" stroke="currentColor" stroke-width="1.5" stroke-linecap="round" stroke-linejoin="round"/>
  </svg>
  <svg id="location" viewBox="0 0 24 24" fill="none">
    <path id="Stroke 1" fill-rule="evenodd" clip-rule="evenodd" d="M14.5 10.5005C14.5 9.11924 13.3808 8 12.0005 8C10.6192 8 9.5 9.11924 9.5 10.5005C9.5 11.8808 10.6192 13 12.0005 13C13.3808 13 14.5 11.8808 14.5 10.5005Z" stroke="currentColor" stroke-width="1.5" stroke-linecap="round" stroke-linejoin="round"/>
    <path id="Stroke 3" fill-rule="evenodd" clip-rule="evenodd" d="M11.9995 21C10.801 21 4.5 15.8984 4.5 10.5633C4.5 6.38664 7.8571 3 11.9995 3C16.1419 3 19.5 6.38664 19.5 10.5633C19.5 15.8984 13.198 21 11.9995 21Z" stroke="currentColor" stroke-width="1.5" stroke-linecap="round" stroke-linejoin="round"/>
  </svg>
  <svg id="document" viewBox="0 0 24 24" fill="none">
    <path id="Stroke 1" d="M15.7161 16.2236H8.49609" stroke="currentColor" stroke-width="1.5" stroke-linecap="round" stroke-linejoin="round"/>
    <path id="Stroke 2" d="M15.7161 12.0371H8.49609" stroke="currentColor" stroke-width="1.5" stroke-linecap="round" stroke-linejoin="round"/>
    <path id="Stroke 3" d="M11.2521 7.86035H8.49707" stroke="currentColor" stroke-width="1.5" stroke-linecap="round" stroke-linejoin="round"/>
    <path id="Stroke 4" fill-rule="evenodd" clip-rule="evenodd" d="M15.909 2.75C15.909 2.75 8.23198 2.754 8.21998 2.754C5.45998 2.771 3.75098 4.587 3.75098 7.357V16.553C3.75098 19.337 5.47298 21.16 8.25698 21.16C8.25698 21.16 15.933 21.157 15.946 21.157C18.706 21.14 20.416 19.323 20.416 16.553V7.357C20.416 4.573 18.693 2.75 15.909 2.75Z" stroke="currentColor" stroke-width="1.5" stroke-linecap="round" stroke-linejoin="round"/>
  </svg>
  <svg id="time" viewBox="0 0 24 24" fill="none">
    <path id="Stroke 1" fill-rule="evenodd" clip-rule="evenodd" d="M21.25 12.001C21.25 17.11 17.109 21.251 12 21.251C6.891 21.251 2.75 17.11 2.75 12.001C2.75 6.89198 6.891 2.75098 12 2.75098C17.109 2.75098 21.25 6.89198 21.25 12.001Z" stroke="currentColor" stroke-width="1.5" stroke-linecap="round" stroke-linejoin="round"/>
    <path id="Stroke 3" d="M15.4311 14.9437L11.6611 12.6947V7.84766" stroke="currentColor" stroke-width="1.5" stroke-linecap="round" stroke-linejoin="round"/>
  </svg>
  <svg id="shield" viewBox="0 0 24 24" fill="none">
    <path id="Stroke 1" fill-rule="evenodd" clip-rule="evenodd" d="M11.9845 21.606C11.9845 21.606 19.6565 19.283 19.6565 12.879C19.6565 6.474 19.9345 5.974 19.3195 5.358C18.7035 4.742 12.9905 2.75 11.9845 2.75C10.9785 2.75 5.26551 4.742 4.65051 5.358C4.03451 5.974 4.31251 6.474 4.31251 12.879C4.31251 19.283 11.9845 21.606 11.9845 21.606Z" stroke="currentColor" stroke-width="1.5" stroke-linecap="round" stroke-linejoin="round"/>
    <path id="Stroke 3" d="M9.38568 11.8741L11.2777 13.7691L15.1757 9.86914" stroke="currentColor" stroke-width="1.5" stroke-linecap="round" stroke-linejoin="round"/>
  </svg>
  <svg id="downlaod" viewBox="0 0 24 24" fill="none">
    <path id="Stroke 1" d="M12.1223 15.4365L12.1223 3.39551" stroke="currentColor" stroke-width="1.5" stroke-linecap="round" stroke-linejoin="round"/>
    <path id="Stroke 3" d="M15.0383 12.5088L12.1223 15.4368L9.20627 12.5088" stroke="currentColor" stroke-width="1.5" stroke-linecap="round" stroke-linejoin="round"/>
    <path id="Stroke 4" d="M16.7551 8.12793H17.6881C19.7231 8.12793 21.3721 9.77693 21.3721 11.8129V16.6969C21.3721 18.7269 19.7271 20.3719 17.6971 20.3719L6.55707 20.3719C4.52207 20.3719 2.87207 18.7219 2.87207 16.6869V11.8019C2.87207 9.77293 4.51807 8.12793 6.54707 8.12793L7.48907 8.12793" stroke="currentColor" stroke-width="1.5" stroke-linecap="round" stroke-linejoin="round"/>
  </svg>
  <svg id="copper-candy" viewBox="0 0 24 24" fill="none">
    <path d="M18.9226 22.9995C18.9083 22.9995 18.894 22.9995 18.8797 22.9987C18.5985 22.9866 18.3339 22.8569 18.153 22.6419C16.5902 20.7836 16.2925 18.5985 17.4456 17.4455C18.5984 16.2926 20.7848 16.5902 22.6422 18.1527C22.8569 18.3331 22.987 18.5981 22.9993 18.8795C23.0115 19.1615 22.9041 19.4376 22.7044 19.6373L22.6254 19.7166L22.5189 19.7502C22.2665 19.8303 21.9724 19.8343 21.6913 19.8298C21.4713 19.8329 21.1398 19.829 21.0449 19.8933C20.5424 20.2321 20.1102 20.6838 19.7945 21.1998C19.7828 21.2485 19.8056 21.4764 19.8191 21.6124C19.8462 21.8827 19.874 22.1625 19.79 22.4046L19.7117 22.6293L19.6374 22.7036C19.448 22.8932 19.1895 22.9996 18.9225 22.9996L18.9226 22.9995ZM18.0936 18.0938C17.3114 18.8761 17.6456 20.6145 18.8544 22.0522C18.8748 22.0764 18.9008 22.0822 18.919 22.0832C18.9212 22.0827 18.924 22.0827 18.9279 22.0832C18.937 22.0039 18.9187 21.8187 18.9071 21.7036C18.873 21.3617 18.8377 21.008 19.0126 20.7221C19.3965 20.0946 19.9217 19.5455 20.5322 19.1337C20.86 18.9121 21.3016 18.9099 21.6921 18.9134C21.8248 18.9126 21.9658 18.9139 22.0815 18.9036C22.0782 18.888 22.0703 18.87 22.0524 18.8549C20.615 17.6458 18.8763 17.3123 18.0936 18.0938L18.0936 18.0938Z" fill="currentColor"/>
    <path d="M4.7198 7.25463C3.67243 7.25463 2.4578 6.77304 1.35804 5.84785C1.1434 5.66747 1.01323 5.40247 1.00093 5.12103C0.988791 4.83908 1.09619 4.56296 1.29586 4.36327L1.37034 4.28846L1.59578 4.21066C1.83751 4.12737 2.11748 4.15464 2.38732 4.18157C2.52314 4.19537 2.75074 4.21698 2.82041 4.19636C3.31615 3.89014 3.76823 3.45789 4.10701 2.95616C4.17085 2.86123 4.17052 2.52959 4.17036 2.31029C4.17019 2.02717 4.17002 1.73489 4.25016 1.48205L4.28391 1.37549L4.36288 1.29669C4.56254 1.09703 4.84002 0.984315 5.12066 1.00177C5.4018 1.0139 5.66646 1.14357 5.84734 1.35853C7.41012 3.21682 7.70787 5.40195 6.55474 6.55495C6.0844 7.02527 5.4417 7.25454 4.71983 7.25454L4.7198 7.25463ZM1.91681 5.07349V5.08147C1.91764 5.09943 1.92379 5.12536 1.9479 5.14598C3.38563 6.35541 5.12448 6.68839 5.9067 5.90688C6.68892 5.12453 6.35473 3.38613 5.14593 1.94841C5.13064 1.93045 5.11252 1.92247 5.09689 1.91932C5.08675 2.03519 5.08708 2.17799 5.08708 2.30916C5.08758 2.69901 5.08791 3.14072 4.8668 3.46838C4.45499 4.0785 3.90553 4.60385 3.2781 4.98785C2.99298 5.16291 2.63872 5.1275 2.29657 5.09342C2.18252 5.08295 2.00031 5.06449 1.91685 5.07347L1.91681 5.07349ZM6.23073 6.23088H6.23522H6.23073Z" fill="currentColor"/>
    <path d="M15.3319 19.1291C13.2197 19.1291 10.6 17.8951 8.35242 15.6478C6.75543 14.0508 5.60991 12.1836 5.12749 10.3901C4.62077 8.50753 4.8974 6.91588 5.90588 5.90779C6.91405 4.89936 8.50572 4.62273 10.3883 5.12943C12.1821 5.61239 14.0495 6.75781 15.6463 8.35475C17.2433 9.95168 18.3888 11.8189 18.8712 13.6125C19.3779 15.495 19.1013 17.0867 18.0928 18.0947C17.3931 18.7948 16.4306 19.1291 15.3315 19.1291H15.3319ZM8.64779 5.79845C7.77547 5.79845 7.05543 6.05447 6.55386 6.5557C5.78709 7.32244 5.59493 8.59984 6.01253 10.1521C6.4541 11.7929 7.5153 13.5147 9.00057 15C11.9527 17.9521 15.8196 19.0721 17.445 17.4469C18.2118 16.6802 18.4039 15.4028 17.9863 13.8505C17.5447 12.2097 16.4835 10.4879 14.9983 9.00266C13.5131 7.5171 11.7913 6.45594 10.1502 6.01457C9.61306 5.8701 9.10915 5.79845 8.64762 5.79845L8.64779 5.79845Z" fill="currentColor"/>
  </svg>
  <svg id="coffee" viewBox="0 0 24 24" fill="none">
    <path d="M18 8H19C20.0609 8 21.0783 8.42143 21.8284 9.17157C22.5786 9.92172 23 10.9391 23 12C23 13.0609 22.5786 14.0783 21.8284 14.8284C21.0783 15.5786 20.0609 16 19 16H18" stroke="currentColor" stroke-width="1.5" stroke-linecap="round" stroke-linejoin="round"/>
    <path d="M2 8H18V17C18 18.0609 17.5786 19.0783 16.8284 19.8284C16.0783 20.5786 15.0609 21 14 21H6C4.93913 21 3.92172 20.5786 3.17157 19.8284C2.42143 19.0783 2 18.0609 2 17V8Z" stroke="currentColor" stroke-width="1.5" stroke-linecap="round" stroke-linejoin="round"/>
    <path d="M6 1V4" stroke="currentColor" stroke-width="1.5" stroke-linecap="round" stroke-linejoin="round"/>
    <path d="M10 1V4" stroke="currentColor" stroke-width="1.5" stroke-linecap="round" stroke-linejoin="round"/>
    <path d="M14 1V4" stroke="currentColor" stroke-width="1.5" stroke-linecap="round" stroke-linejoin="round"/>
  </svg>
  <svg id="vecter-left" viewBox="0 0 24 24" fill="none">
    <path d="M4.25 12.2744L19.25 12.2744" stroke="currentColor" stroke-width="1.5" stroke-linecap="round" stroke-linejoin="round"/>
    <path d="M10.2998 18.2988L4.2498 12.2748L10.2998 6.24976" stroke="currentColor" stroke-width="1.5" stroke-linecap="round" stroke-linejoin="round"/>
  </svg>
  <svg id="star-half" viewBox="0 0 24 24" fill="none">
    <path id="Stroke 1" fill-rule="evenodd" clip-rule="evenodd" d="M13.1043 4.17701L14.9317 7.82776C15.1108 8.18616 15.4565 8.43467 15.8573 8.49218L19.9453 9.08062C20.9554 9.22644 21.3573 10.4505 20.6263 11.1519L17.6702 13.9924C17.3797 14.2718 17.2474 14.6733 17.3162 15.0676L18.0138 19.0778C18.1856 20.0698 17.1298 20.8267 16.227 20.3574L12.5732 18.4627C12.215 18.2768 11.786 18.2768 11.4268 18.4627L7.773 20.3574C6.87023 20.8267 5.81439 20.0698 5.98724 19.0778L6.68385 15.0676C6.75257 14.6733 6.62033 14.2718 6.32982 13.9924L3.37368 11.1519C2.64272 10.4505 3.04464 9.22644 4.05466 9.08062L8.14265 8.49218C8.54354 8.43467 8.89028 8.18616 9.06937 7.82776L10.8957 4.17701C11.3477 3.27433 12.6523 3.27433 13.1043 4.17701Z" stroke="currentColor" stroke-width="1.5" stroke-linecap="round" stroke-linejoin="round"/>
    <path id="Stroke 2" fill-rule="evenodd" clip-rule="evenodd" d="M12.5732 4.17701V7.82776V8.49218V9.08062V11.1519V13.9924V15.0676V19.0778V18.4627C12.215 18.2768 11.786 18.2768 11.4268 18.4627L7.773 20.3574C6.87023 20.8267 5.81439 20.0698 5.98724 19.0778L6.68385 15.0676C6.75257 14.6733 6.62033 14.2718 6.32982 13.9924L3.37368 11.1519C2.64272 10.4505 3.04464 9.22644 4.05466 9.08062L8.14265 8.49218C8.54354 8.43467 8.89028 8.18616 9.06937 7.82776L10.8957 4.17701C11.3477 3.27433 12.1213 3.27433 12.5732 4.17701Z" fill="currentColor"/>
  </svg>
  <svg id="google-light" viewBox="0 0 24 24" fill="none">
    <g clip-path="url(#clip0_3976_5648)">
    <path d="M12.2045 11.0183H20.9315C20.9765 11.4041 21 11.8 21 12.205C21 14.9452 19.9977 17.2525 18.2611 18.82C16.7424 20.1942 14.6632 21 12.1841 21C10.978 21.0005 9.78353 20.7681 8.66909 20.316C7.55465 19.864 6.54204 19.2011 5.68912 18.3653C4.83621 17.5296 4.15971 16.5373 3.6983 15.4452C3.23688 14.353 2.9996 13.1825 3 12.0005C2.99946 10.8184 3.23665 9.64776 3.698 8.55554C4.15936 7.46331 4.83583 6.47089 5.68876 5.63501C6.54169 4.79913 7.55435 4.13618 8.66886 3.68405C9.78336 3.23192 10.9779 2.99947 12.1841 3C14.6591 3 16.7383 3.89203 18.3286 5.34434L16.8334 6.80868C15.6491 5.68712 14.0485 5.00457 12.2045 5.00457C11.2644 5.00457 10.3335 5.18604 9.46488 5.53863C8.5963 5.89121 7.80709 6.40801 7.1423 7.0595C6.47752 7.71099 5.95019 8.48443 5.59041 9.33565C5.23063 10.1869 5.04545 11.0992 5.04545 12.0205C5.04545 12.9419 5.23063 13.8542 5.59041 14.7054C5.95019 15.5567 6.47752 16.3301 7.1423 16.9816C7.80709 17.6331 8.5963 18.1499 9.46488 18.5025C10.3335 18.8551 11.2644 19.0365 12.2045 19.0365C15.8107 19.0365 18.4882 16.4226 18.931 13.0228H12.2045V11.0183Z" fill="currentColor"/>
    </g>
  </svg>
  <svg id="delete" width="24" height="24" viewBox="0 0 24 24" fill="none">
    <path id="Stroke 1" d="M19.3248 9.46875C19.3248 9.46875 18.7818 16.2037 18.4668 19.0407C18.3168 20.3957 17.4798 21.1898 16.1088 21.2148C13.4998 21.2618 10.8878 21.2648 8.27979 21.2098C6.96079 21.1828 6.13779 20.3788 5.99079 19.0478C5.67379 16.1858 5.13379 9.46875 5.13379 9.46875" stroke="currentColor" stroke-width="1.5" stroke-linecap="round" stroke-linejoin="round"/>
    <path id="Stroke 3" d="M20.708 6.24023H3.75" stroke="currentColor" stroke-width="1.5" stroke-linecap="round" stroke-linejoin="round"/>
    <path id="Stroke 5" d="M17.4404 6.23998C16.6554 6.23998 15.9794 5.68498 15.8254 4.91598L15.5824 3.69998C15.4324 3.13898 14.9244 2.75098 14.3454 2.75098H10.1124C9.5334 2.75098 9.0254 3.13898 8.8754 3.69998L8.6324 4.91598C8.4784 5.68498 7.8024 6.23998 7.0174 6.23998" stroke="currentColor" stroke-width="1.5" stroke-linecap="round" stroke-linejoin="round"/>
  </svg>
  <svg id="edit" viewBox="0 0 24 24" fill="none">
    <path id="Stroke 1" d="M13.7471 20.4428H20.9997" stroke="currentColor" stroke-width="1.5" stroke-linecap="round" stroke-linejoin="round"/>
    <path id="Stroke 3" fill-rule="evenodd" clip-rule="evenodd" d="M12.78 3.79479C13.5557 2.86779 14.95 2.73186 15.8962 3.49173C15.9485 3.53296 17.6295 4.83879 17.6295 4.83879C18.669 5.46719 18.992 6.80311 18.3494 7.82259C18.3153 7.87718 8.81195 19.7645 8.81195 19.7645C8.49578 20.1589 8.01583 20.3918 7.50291 20.3973L3.86353 20.443L3.04353 16.9723C2.92866 16.4843 3.04353 15.9718 3.3597 15.5773L12.78 3.79479Z" stroke="currentColor" stroke-width="1.5" stroke-linecap="round" stroke-linejoin="round"/>
    <path id="Stroke 5" d="M11.0205 6.00098L16.4728 10.1881" stroke="currentColor" stroke-width="1.5" stroke-linecap="round" stroke-linejoin="round"/>
  </svg>
  <svg id="edit-square" viewBox="0 0 24 24" fill="none">
    <path id="Stroke 1" d="M11.4923 2.78894H7.7533C4.6783 2.78894 2.75031 4.96594 2.75031 8.04794V16.3619C2.75031 19.4439 4.6693 21.6209 7.7533 21.6209H16.5773C19.6623 21.6209 21.5813 19.4439 21.5813 16.3619V12.3339" stroke="currentColor" stroke-width="1.5" stroke-linecap="round" stroke-linejoin="round"/>
    <path id="Stroke 3" fill-rule="evenodd" clip-rule="evenodd" d="M8.82782 10.9209L16.3008 3.44787C17.2318 2.51787 18.7408 2.51787 19.6718 3.44787L20.8888 4.66487C21.8198 5.59587 21.8198 7.10587 20.8888 8.03587L13.3798 15.5449C12.9728 15.9519 12.4208 16.1809 11.8448 16.1809H8.09882L8.19282 12.4009C8.20682 11.8449 8.43382 11.3149 8.82782 10.9209Z" stroke="currentColor" stroke-width="1.5" stroke-linecap="round" stroke-linejoin="round"/>
    <path id="Stroke 5" d="M15.1652 4.60242L19.7312 9.16842" stroke="currentColor" stroke-width="1.5" stroke-linecap="round" stroke-linejoin="round"/>
  </svg>
  <svg id="play" viewBox="0 0 24 24" fill="none">
    <path id="Stroke 1" fill-rule="evenodd" clip-rule="evenodd" d="M12 2.5C17.2459 2.5 21.5 6.75315 21.5 12C21.5 17.2469 17.2459 21.5 12 21.5C6.75315 21.5 2.5 17.2469 2.5 12C2.5 6.75315 6.75315 2.5 12 2.5Z" stroke="currentColor" stroke-width="1.5" stroke-linecap="round" stroke-linejoin="round"/>
    <path id="Stroke 3" fill-rule="evenodd" clip-rule="evenodd" d="M15 11.9951C15 11.184 10.8425 8.58912 10.3709 9.0557C9.8993 9.52228 9.85395 14.424 10.3709 14.9346C10.8879 15.4469 15 12.8063 15 11.9951Z" stroke="currentColor" stroke-width="1.5" stroke-linecap="round" stroke-linejoin="round"/>
  </svg>
  <svg id="filter" viewBox="0 0 24 24" fill="none">
    <path id="Stroke 1" d="M10.3302 16.5929H4.02945" stroke="currentColor" stroke-width="1.5" stroke-linecap="round" stroke-linejoin="round"/>
    <path id="Stroke 3" d="M13.1406 6.90066H19.4413" stroke="currentColor" stroke-width="1.5" stroke-linecap="round" stroke-linejoin="round"/>
    <path id="Stroke 5" fill-rule="evenodd" clip-rule="evenodd" d="M8.72629 6.84625C8.72629 5.5506 7.66813 4.5 6.36314 4.5C5.05816 4.5 4 5.5506 4 6.84625C4 8.14191 5.05816 9.19251 6.36314 9.19251C7.66813 9.19251 8.72629 8.14191 8.72629 6.84625Z" stroke="currentColor" stroke-width="1.5" stroke-linecap="round" stroke-linejoin="round"/>
    <path id="Stroke 7" fill-rule="evenodd" clip-rule="evenodd" d="M19.9997 16.5533C19.9997 15.2576 18.9424 14.207 17.6374 14.207C16.3316 14.207 15.2734 15.2576 15.2734 16.5533C15.2734 17.8489 16.3316 18.8995 17.6374 18.8995C18.9424 18.8995 19.9997 17.8489 19.9997 16.5533Z" stroke="currentColor" stroke-width="1.5" stroke-linecap="round" stroke-linejoin="round"/>
  </svg>
  <svg id="minus-square" viewBox="0 0 24 24" fill="none">
    <path d="M15.6663 11.9904H8.33301" stroke="currentColor" stroke-width="1.5" stroke-linecap="round" stroke-linejoin="round"/>
    <path fill-rule="evenodd" clip-rule="evenodd" d="M16.6857 2H7.31429C4.04762 2 2 4.31208 2 7.58516V16.4148C2 19.6879 4.0381 22 7.31429 22H16.6857C19.9619 22 22 19.6879 22 16.4148V7.58516C22 4.31208 19.9619 2 16.6857 2Z" stroke="currentColor" stroke-width="1.5" stroke-linecap="round" stroke-linejoin="round"/>
  </svg>
  <svg id="jewelry" viewBox="0 0 24 24" fill="none">
    <path d="M11.452 5.26477C11.1413 5.26477 10.8895 5.51656 10.8895 5.82726V11.4522C10.8895 11.7629 11.1413 12.0147 11.452 12.0147C11.7627 12.0147 12.0145 11.7629 12.0145 11.4522V5.82726C12.0145 5.51655 11.7627 5.26477 11.452 5.26477Z" fill="currentColor"/>
    <path d="M9.20214 15.0146C8.89143 15.0146 8.63965 15.2664 8.63965 15.5771V18.9522C8.63965 19.2629 8.89144 19.5146 9.20214 19.5146C9.51284 19.5146 9.76463 19.2629 9.76463 18.9522V15.5771C9.76463 15.2664 9.51284 15.0146 9.20214 15.0146Z" fill="currentColor"/>
    <path d="M20.8271 20.2647H16.4262C16.718 19.8438 16.8897 19.3334 16.8897 18.7835V15.371C16.8897 14.0547 15.9088 12.964 14.6397 12.7897V5.26463C14.6397 3.81726 13.4621 2.63965 12.0147 2.63965C10.5674 2.63965 9.38975 3.81729 9.38975 5.26463V12.7897C8.12063 12.9639 7.13975 14.0547 7.13975 15.371V18.7835C7.13975 19.3334 7.31145 19.8438 7.6034 20.2647H3.20214C2.89143 20.2647 2.63965 20.5165 2.63965 20.8272C2.63965 21.1379 2.89144 21.3897 3.20214 21.3897H20.8271C21.1378 21.3897 21.3895 21.1379 21.3895 20.8272C21.3895 20.5165 21.1378 20.2647 20.8271 20.2647H20.8271ZM10.5146 5.26473C10.5146 4.43759 11.1875 3.76473 12.0146 3.76473C12.8418 3.76473 13.5146 4.43759 13.5146 5.26473V12.7647H10.5146V5.26473ZM9.74588 20.2647C8.92919 20.2647 8.26463 19.6002 8.26463 18.7835V15.371C8.26463 14.5543 8.92919 13.8898 9.74588 13.8898H14.2832C15.0999 13.8898 15.7645 14.5543 15.7645 15.371V18.7835C15.7645 19.6002 15.0999 20.2647 14.2832 20.2647H9.74588Z" fill="currentColor"/>
  </svg>
  <svg id="breakfast" viewBox="0 0 24 24" fill="none">
    <path d="M21.9076 22.4612C21.9917 18.0729 19.2217 14.0365 15.3813 12.5387C11.5059 11.0304 6.97674 12.339 4.3649 15.7235C2.91792 17.5999 2.05079 20.0225 2.09539 22.4612C2.11026 23.1392 3.10128 23.1392 3.08641 22.4612C3.01209 18.5669 5.45512 14.8934 8.88441 13.5533C10.6586 12.8595 12.6061 12.7702 14.4244 13.3168C16.1737 13.8372 17.7348 14.9355 18.8942 16.4174C20.1975 18.0834 20.9558 20.2906 20.916 22.4612C20.9013 23.1339 21.8923 23.1339 21.9072 22.4612L21.9076 22.4612Z" fill="currentColor"/>
    <path d="M1.47935 22.9859H3.5755H8.61025H14.6759H19.9191C20.7715 22.9859 21.6338 23.0174 22.486 22.9859H22.5208C23.1601 22.9859 23.1601 21.9349 22.5208 21.9349H20.4246H15.3899H9.32421H4.08106C3.22862 21.9349 2.36636 21.9034 1.51409 21.9349H1.47935C0.840217 21.9349 0.840217 22.9859 1.47935 22.9859Z" fill="currentColor"/>
    <path d="M10.5285 8.17145C10.8803 7.35156 11.4106 6.47395 11.2124 5.53844C11.133 5.16012 10.9348 4.81315 10.6871 4.53471C10.4987 4.31915 10.3254 4.11423 10.2858 3.80941C10.2412 3.44686 10.4294 3.06835 10.5485 2.73731C10.6773 2.37989 10.8062 2.02267 10.935 1.66521C11.0292 1.40236 10.8309 1.08711 10.5881 1.01874C10.3105 0.939928 10.0727 1.11864 9.97851 1.38661C9.87446 1.68098 9.76541 1.97517 9.66136 2.26952C9.54245 2.59542 9.38879 2.93175 9.32934 3.27326C9.26487 3.64644 9.27974 4.03008 9.40867 4.38731C9.54245 4.7605 9.76541 5.01801 10.0082 5.3071C10.3204 5.68029 10.3156 6.13229 10.1322 6.56835C9.97852 6.92578 9.82487 7.28299 9.6714 7.6351C9.56234 7.89263 9.60209 8.20278 9.84976 8.35509C10.0677 8.49202 10.4196 8.42896 10.5285 8.17143L10.5285 8.17145Z" fill="currentColor"/>
    <path d="M13.9863 9.75348C14.3382 8.93359 14.8685 8.05598 14.6702 7.12047C14.5909 6.74215 14.3927 6.39518 14.145 6.11674C13.9566 5.90118 13.7833 5.69626 13.7437 5.39144C13.6991 5.02889 13.8873 4.65038 14.0064 4.31934C14.1352 3.96192 14.2641 3.6047 14.3929 3.24724C14.487 2.98439 14.2888 2.66914 14.046 2.60078C13.7684 2.52196 13.5306 2.70067 13.4364 2.96864C13.3323 3.26301 13.2233 3.5572 13.1192 3.85155C13.0003 4.17745 12.8467 4.51378 12.7872 4.85529C12.7228 5.22847 12.7376 5.61211 12.8666 5.96934C13.0003 6.34253 13.2233 6.60004 13.4661 6.88913C13.7783 7.26231 13.7734 7.71432 13.5901 8.15038C13.4364 8.5078 13.2828 8.86502 13.1293 9.21713C13.0202 9.47466 13.06 9.78481 13.3076 9.93712C13.5206 10.074 13.8725 10.011 13.9864 9.75346L13.9863 9.75348Z" fill="currentColor"/>
  </svg>
  <svg id="game" viewBox="0 0 24 24" fill="none">
    <path id="Stroke 7" fill-rule="evenodd" clip-rule="evenodd" d="M16.4283 17.5892C13.4231 17.6401 10.473 17.638 7.57275 17.5892C4.3535 17.5892 2 15.293 2 12.1379V7.48832C2 4.33322 4.3535 2.037 7.57275 2.037C10.4889 1.98715 13.4411 1.98819 16.4283 2.037C19.6476 2.037 22 4.33426 22 7.48832V12.1379C22 15.293 19.6476 17.5892 16.4283 17.5892Z" stroke="currentColor" stroke-width="1.5" stroke-linecap="round" stroke-linejoin="round"/>
    <path id="Stroke 8" fill-rule="evenodd" clip-rule="evenodd" d="M15 9.99514C15 9.18401 10.8425 6.58912 10.3709 7.0557C9.8993 7.52228 9.85395 12.424 10.3709 12.9346C10.8879 13.4469 15 10.8063 15 9.99514Z" stroke="currentColor" stroke-width="1.5" stroke-linecap="round" stroke-linejoin="round"/>
    <path id="Vector 1" d="M12 18V22H8H16" stroke="currentColor" stroke-width="1.5"/>
  </svg>
  <svg id="star-full" viewBox="0 0 24 24" fill="none">
    <path id="Stroke 1" fill-rule="evenodd" clip-rule="evenodd" d="M13.1043 4.17701L14.9317 7.82776C15.1108 8.18616 15.4565 8.43467 15.8573 8.49218L19.9453 9.08062C20.9554 9.22644 21.3573 10.4505 20.6263 11.1519L17.6702 13.9924C17.3797 14.2718 17.2474 14.6733 17.3162 15.0676L18.0138 19.0778C18.1856 20.0698 17.1298 20.8267 16.227 20.3574L12.5732 18.4627C12.215 18.2768 11.786 18.2768 11.4268 18.4627L7.773 20.3574C6.87023 20.8267 5.81439 20.0698 5.98724 19.0778L6.68385 15.0676C6.75257 14.6733 6.62033 14.2718 6.32982 13.9924L3.37368 11.1519C2.64272 10.4505 3.04464 9.22644 4.05466 9.08062L8.14265 8.49218C8.54354 8.43467 8.89028 8.18616 9.06937 7.82776L10.8957 4.17701C11.3477 3.27433 12.6523 3.27433 13.1043 4.17701Z" fill="currentColor"/>
  </svg>
  <svg id="tomato" viewBox="0 0 24 24" fill="none">
    <path d="M11.4857 21.9989C6.95109 21.9989 3.71561 20.7927 2.12238 18.5248C0.749797 16.5464 0.627197 13.9168 1.80385 10.9011C2.5883 8.85029 4.81869 7.45117 7.34339 7.45117C9.23079 7.45117 11.118 8.22328 12.7113 9.64666C13.5202 9.01943 15.4321 7.74081 17.5155 7.74081C19.4274 7.74081 20.947 8.77813 22.0501 10.8048C23.3001 13.145 23.3247 15.5335 22.0746 17.5841C20.3586 20.3826 16.5105 21.9992 11.4857 21.9992L11.4857 21.9989ZM7.34322 8.56091C5.28433 8.56091 3.47045 9.67078 2.83316 11.2872C2.12242 13.1449 1.58313 15.7987 3.02927 17.8976C4.40186 19.8518 7.31874 20.8892 11.4856 20.8892C16.0937 20.8892 19.6234 19.4659 21.1185 17.005C22.148 15.3162 22.1235 13.2897 21.0695 11.3113C20.1871 9.64661 18.9859 8.82638 17.5398 8.82638C15.2848 8.82638 13.1033 10.7565 13.0788 10.7805C12.8582 10.9735 12.5151 10.9735 12.319 10.7565C10.4317 8.94685 8.56893 8.5608 7.3432 8.5608L7.34322 8.56091Z" fill="currentColor"/>
    <path d="M12.7845 8.68316C12.711 8.68316 12.6619 8.68316 12.5884 8.65909C12.3923 8.58673 12.2453 8.41777 12.2208 8.20066C12.1964 7.98357 11.9756 6.00518 12.9806 4.87127C13.3973 4.3888 13.9856 4.14746 14.6964 4.14746H14.7208C17.2699 4.17153 18.9367 5.7398 19.0103 5.81218C19.1819 5.98114 19.2308 6.24635 19.1083 6.46361C18.9857 6.68071 18.7407 6.80136 18.4955 6.729C18.2258 6.68071 17.9318 6.63258 17.6621 6.63258C15.3336 6.63258 13.1766 8.51438 13.1521 8.51438C13.0541 8.63487 12.9071 8.68317 12.7845 8.68317L12.7845 8.68316ZM14.7208 5.25731C14.3286 5.25731 14.059 5.37797 13.8384 5.59506C13.5197 5.93281 13.3973 6.51188 13.3482 7.01844C14.1327 6.51171 15.3092 5.86045 16.6574 5.61915C16.1181 5.42612 15.4563 5.25733 14.7209 5.25733L14.7208 5.25731Z" fill="currentColor"/>
    <path d="M10.8975 7.45237H10.8239C7.17173 7.04225 5.33343 3.92993 4.99028 3.27866C4.59806 2.94091 4.59806 2.62723 4.67158 2.43418C4.72065 2.31351 4.86769 2 5.38232 2C5.6275 2 6.1177 2.0483 7.56381 2.55485C11.0692 3.76113 11.4368 6.72855 11.4612 6.84923C11.4857 7.01819 11.4122 7.18698 11.2896 7.30766C11.1916 7.40409 11.0446 7.45239 10.8975 7.45239L10.8975 7.45237ZM6.33838 3.32679C6.90209 4.17127 8.17672 5.66698 10.1377 6.22183C9.81896 5.42568 9.0347 4.24343 7.22078 3.61625C6.85318 3.47152 6.55894 3.37509 6.33838 3.32679V3.32679Z" fill="currentColor"/>
  </svg>
  <svg id="checked" viewBox="0 0 24 24" fill="red">
    <path d="M16.334 2.75H7.665C4.644 2.75 2.75 4.889 2.75 7.916V16.084C2.75 19.111 4.635 21.25 7.665 21.25H16.333C19.364 21.25 21.25 19.111 21.25 16.084V7.916C21.25 4.889 19.364 2.75 16.334 2.75Z" fill="transparent" stroke="#dee2e673" stroke-width="1.5" />
    <path d="M8.43951 12L10.8135 14.373L15.5595 9.62695" stroke="currentColor" stroke-width="1.5" stroke-linecap="round" stroke-linejoin="round"/>
  </svg>
  <svg  id="clouds-and-sun" viewBox="0 0 153 94" fill="none" xmlns="http://www.w3.org/2000/svg">
    <circle opacity="0.1" cx="48" cy="47" r="47" fill="white"/>
    <circle opacity="0.1" cx="48" cy="47" r="42" fill="white"/>
    <circle opacity="0.2" cx="48" cy="47" r="38" fill="white"/>
    <circle opacity="0.2" cx="48" cy="47" r="33" fill="white"/>
    <circle cx="48" cy="47" r="29" fill="#FDA707"/>
    <circle cx="48.0005" cy="41.9565" r="23.9565" fill="url(#paint0_linear_1_12)"/>
    <circle cx="41.6961" cy="29.3478" r="7.56522" fill="#FEA906"/>
    <circle cx="57.457" cy="37.5435" r="4.41304" fill="#FEA906"/>
    <circle cx="56.1961" cy="24.9348" r="3.15217" fill="#FEA906"/>
    <circle cx="53.6737" cy="64.0217" r="3.15217" fill="#FEA906"/>
    <circle cx="30.3479" cy="47" r="2.52174" fill="#FEA906"/>
    <circle cx="32" cy="61" r="11" fill="white"/>
    <circle cx="19" cy="64" r="8" fill="white"/>
    <circle cx="7" cy="67" r="7" fill="white"/>
    <circle cx="44" cy="68" r="4" fill="white"/>
    <path d="M22.9997 78.5C11.3997 78.5 -1.5 71.5 4.99967 72L20.4997 63.5C29.333 64.3333 46.7997 66.6 45.9997 69C44.9997 72 37.4997 78.5 22.9997 78.5Z" fill="white"/>
    <circle cx="133.469" cy="33.7304" r="9.7862" fill="white"/>
    <circle cx="121.903" cy="36.3993" r="7.11723" fill="white"/>
    <circle cx="111.228" cy="39.0683" r="6.22758" fill="white"/>
    <circle cx="144.145" cy="39.958" r="3.55862" fill="white"/>
    <circle cx="122.508" cy="43.3085" r="9.7862" transform="rotate(-165 122.508 43.3085)" fill="white"/>
    <circle cx="134.37" cy="43.7241" r="7.11723" transform="rotate(-165 134.37 43.7241)" fill="white"/>
    <circle cx="145.373" cy="43.9093" r="6.22758" transform="rotate(-165 145.373 43.9093)" fill="white"/>
    <circle cx="113.807" cy="34.5301" r="3.55862" transform="rotate(-165 113.807 34.5301)" fill="white"/>
    <path d="M125.461 49.2993C115.141 49.2993 103.665 43.0718 109.448 43.5166L123.237 35.9545C131.096 36.6959 146.635 38.7125 145.923 40.8476C145.034 43.5166 138.361 49.2993 125.461 49.2993Z" fill="white"/>
    <defs>
    <linearGradient id="paint0_linear_1_12" x1="48.0005" y1="18" x2="48.0005" y2="65.913" gradientUnits="userSpaceOnUse">
    <stop stop-color="#FFC00F" stop-opacity="0.28"/>
    <stop offset="1" stop-color="#FFC00F"/>
    </linearGradient>
    </defs>
  </svg>
  <svg id="moon-and-star" viewBox="0 0 241 128" fill="none" xmlns="http://www.w3.org/2000/svg">
    <circle opacity="0.05" cx="75" cy="45" r="45" fill="white"/>
    <circle opacity="0.05" cx="75" cy="45" r="40" fill="white"/>
    <circle opacity="0.05" cx="75" cy="45" r="34" fill="white"/>
    <circle cx="75" cy="45" r="29" fill="#D1D3D4"/>
    <circle cx="75.0005" cy="39.9565" r="23.9565" fill="#F2F2F2"/>
    <circle cx="68.6961" cy="27.3478" r="7.56522" fill="#C4C4C4"/>
    <circle cx="84.457" cy="35.5435" r="4.41304" fill="#C4C4C4"/>
    <circle cx="83.1961" cy="22.9348" r="3.15217" fill="#C4C4C4"/>
    <circle cx="80.6737" cy="62.0217" r="3.15217" fill="#C4C4C4"/>
    <circle cx="57.3479" cy="45" r="2.52174" fill="#C4C4C4"/>
    <path d="M21.5 81L22.0613 82.7275H23.8776L22.4082 83.7951L22.9695 85.5225L21.5 84.4549L20.0305 85.5225L20.5918 83.7951L19.1224 82.7275H20.9387L21.5 81Z" fill="#F2F2F2"/>
    <path d="M37.5 43L38.0613 44.7275H39.8776L38.4082 45.7951L38.9695 47.5225L37.5 46.4549L36.0305 47.5225L36.5918 45.7951L35.1224 44.7275H36.9387L37.5 43Z" fill="#F2F2F2"/>
    <path d="M72.5 86L73.0613 87.7275H74.8776L73.4082 88.7951L73.9695 90.5225L72.5 89.4549L71.0305 90.5225L71.5918 88.7951L70.1224 87.7275H71.9387L72.5 86Z" fill="#F2F2F2"/>
    <path d="M27.5 123L28.0613 124.727H29.8776L28.4082 125.795L28.9695 127.523L27.5 126.455L26.0305 127.523L26.5918 125.795L25.1224 124.727H26.9387L27.5 123Z" fill="#F2F2F2"/>
    <path d="M169.5 37L170.061 38.7275H171.878L170.408 39.7951L170.969 41.5225L169.5 40.4549L168.031 41.5225L168.592 39.7951L167.122 38.7275H168.939L169.5 37Z" fill="#F2F2F2"/>
    <path d="M101.5 115L102.061 116.727H103.878L102.408 117.795L102.969 119.523L101.5 118.455L100.031 119.523L100.592 117.795L99.1224 116.727H100.939L101.5 115Z" fill="#F2F2F2"/>
    <path d="M137.5 13L138.061 14.7275H139.878L138.408 15.7951L138.969 17.5225L137.5 16.4549L136.031 17.5225L136.592 15.7951L135.122 14.7275H136.939L137.5 13Z" fill="#F2F2F2"/>
    <path d="M151.5 52L152.061 53.7275H153.878L152.408 54.7951L152.969 56.5225L151.5 55.4549L150.031 56.5225L150.592 54.7951L149.122 53.7275H150.939L151.5 52Z" fill="#F2F2F2"/>
    <path d="M236.5 12L237.061 13.7275H238.878L237.408 14.7951L237.969 16.5225L236.5 15.4549L235.031 16.5225L235.592 14.7951L234.122 13.7275H235.939L236.5 12Z" fill="#F2F2F2"/>
    <path d="M221.5 46L222.061 47.7275H223.878L222.408 48.7951L222.969 50.5225L221.5 49.4549L220.031 50.5225L220.592 48.7951L219.122 47.7275H220.939L221.5 46Z" fill="#F2F2F2"/>
    <path d="M2.5 11L3.06129 12.7275H4.87764L3.40818 13.7951L3.96946 15.5225L2.5 14.4549L1.03054 15.5225L1.59182 13.7951L0.122359 12.7275H1.93871L2.5 11Z" fill="#F2F2F2"/>
    <circle cx="27" cy="16" r="1" fill="#F2F2F2"/>
    <circle cx="5" cy="47" r="1" fill="#F2F2F2"/>
    <circle cx="46" cy="101" r="1" fill="#F2F2F2"/>
    <circle cx="4" cy="120" r="1" fill="#F2F2F2"/>
    <circle cx="121" cy="82" r="1" fill="#F2F2F2"/>
    <circle cx="109" cy="33" r="1" fill="#F2F2F2"/>
    <circle cx="96" cy="12" r="1" fill="#F2F2F2"/>
    <circle cx="178" cy="58" r="1" fill="#F2F2F2"/>
    <circle cx="202" cy="19" r="1" fill="#F2F2F2"/>
    <circle cx="240" cy="63" r="1" fill="#F2F2F2"/>
    <circle cx="193" cy="78" r="1" fill="#F2F2F2"/>
  </svg>
  <svg id="five-stars" viewBox="0 0 152 24" fill="none" xmlns="http://www.w3.org/2000/svg">
    <path fill-rule="evenodd" clip-rule="evenodd" d="M13.1043 4.17701L14.9317 7.82776C15.1108 8.18616 15.4565 8.43467 15.8573 8.49218L19.9453 9.08062C20.9554 9.22644 21.3573 10.4505 20.6263 11.1519L17.6702 13.9924C17.3797 14.2718 17.2474 14.6733 17.3162 15.0676L18.0138 19.0778C18.1856 20.0698 17.1298 20.8267 16.227 20.3574L12.5732 18.4627C12.215 18.2768 11.786 18.2768 11.4268 18.4627L7.773 20.3574C6.87023 20.8267 5.81439 20.0698 5.98724 19.0778L6.68385 15.0676C6.75257 14.6733 6.62033 14.2718 6.32982 13.9924L3.37368 11.1519C2.64272 10.4505 3.04464 9.22644 4.05466 9.08062L8.14265 8.49218C8.54354 8.43467 8.89028 8.18616 9.06937 7.82776L10.8957 4.17701C11.3477 3.27433 12.6523 3.27433 13.1043 4.17701Z" fill="#FFB700"/>
    <path fill-rule="evenodd" clip-rule="evenodd" d="M45.1043 4.17701L46.9317 7.82776C47.1108 8.18616 47.4565 8.43467 47.8573 8.49218L51.9453 9.08062C52.9554 9.22644 53.3573 10.4505 52.6263 11.1519L49.6702 13.9924C49.3797 14.2718 49.2474 14.6733 49.3162 15.0676L50.0138 19.0778C50.1856 20.0698 49.1298 20.8267 48.227 20.3574L44.5732 18.4627C44.215 18.2768 43.786 18.2768 43.4268 18.4627L39.773 20.3574C38.8702 20.8267 37.8144 20.0698 37.9872 19.0778L38.6838 15.0676C38.7526 14.6733 38.6203 14.2718 38.3298 13.9924L35.3737 11.1519C34.6427 10.4505 35.0446 9.22644 36.0547 9.08062L40.1427 8.49218C40.5435 8.43467 40.8903 8.18616 41.0694 7.82776L42.8957 4.17701C43.3477 3.27433 44.6523 3.27433 45.1043 4.17701Z" fill="#FFB700"/>
    <path fill-rule="evenodd" clip-rule="evenodd" d="M77.1043 4.17701L78.9317 7.82776C79.1108 8.18616 79.4565 8.43467 79.8573 8.49218L83.9453 9.08062C84.9554 9.22644 85.3573 10.4505 84.6263 11.1519L81.6702 13.9924C81.3797 14.2718 81.2474 14.6733 81.3162 15.0676L82.0138 19.0778C82.1856 20.0698 81.1298 20.8267 80.227 20.3574L76.5732 18.4627C76.215 18.2768 75.786 18.2768 75.4268 18.4627L71.773 20.3574C70.8702 20.8267 69.8144 20.0698 69.9872 19.0778L70.6838 15.0676C70.7526 14.6733 70.6203 14.2718 70.3298 13.9924L67.3737 11.1519C66.6427 10.4505 67.0446 9.22644 68.0547 9.08062L72.1427 8.49218C72.5435 8.43467 72.8903 8.18616 73.0694 7.82776L74.8957 4.17701C75.3477 3.27433 76.6523 3.27433 77.1043 4.17701Z" fill="#FFB700"/>
    <path fill-rule="evenodd" clip-rule="evenodd" d="M109.104 4.17701L110.932 7.82776C111.111 8.18616 111.456 8.43467 111.857 8.49218L115.945 9.08062C116.955 9.22644 117.357 10.4505 116.626 11.1519L113.67 13.9924C113.38 14.2718 113.247 14.6733 113.316 15.0676L114.014 19.0778C114.186 20.0698 113.13 20.8267 112.227 20.3574L108.573 18.4627C108.215 18.2768 107.786 18.2768 107.427 18.4627L103.773 20.3574C102.87 20.8267 101.814 20.0698 101.987 19.0778L102.684 15.0676C102.753 14.6733 102.62 14.2718 102.33 13.9924L99.3737 11.1519C98.6427 10.4505 99.0446 9.22644 100.055 9.08062L104.143 8.49218C104.544 8.43467 104.89 8.18616 105.069 7.82776L106.896 4.17701C107.348 3.27433 108.652 3.27433 109.104 4.17701Z" stroke="#FFB700" stroke-width="1.5" stroke-linecap="round" stroke-linejoin="round"/>
    <path fill-rule="evenodd" clip-rule="evenodd" d="M108.573 4.17701V7.82776V8.49218V9.08062V11.1519V13.9924V15.0676V19.0778V18.4627C108.215 18.2768 107.786 18.2768 107.427 18.4627L103.773 20.3574C102.87 20.8267 101.814 20.0698 101.987 19.0778L102.684 15.0676C102.753 14.6733 102.62 14.2718 102.33 13.9924L99.3737 11.1519C98.6427 10.4505 99.0446 9.22644 100.055 9.08062L104.143 8.49218C104.544 8.43467 104.89 8.18616 105.069 7.82776L106.896 4.17701C107.348 3.27433 108.121 3.27433 108.573 4.17701Z" fill="#FFB700"/>
    <path fill-rule="evenodd" clip-rule="evenodd" d="M141.104 4.17701L142.932 7.82776C143.111 8.18616 143.456 8.43467 143.857 8.49218L147.945 9.08062C148.955 9.22644 149.357 10.4505 148.626 11.1519L145.67 13.9924C145.38 14.2718 145.247 14.6733 145.316 15.0676L146.014 19.0778C146.186 20.0698 145.13 20.8267 144.227 20.3574L140.573 18.4627C140.215 18.2768 139.786 18.2768 139.427 18.4627L135.773 20.3574C134.87 20.8267 133.814 20.0698 133.987 19.0778L134.684 15.0676C134.753 14.6733 134.62 14.2718 134.33 13.9924L131.374 11.1519C130.643 10.4505 131.045 9.22644 132.055 9.08062L136.143 8.49218C136.544 8.43467 136.89 8.18616 137.069 7.82776L138.896 4.17701C139.348 3.27433 140.652 3.27433 141.104 4.17701Z" stroke="#FFB700" stroke-width="1.5" stroke-linecap="round" stroke-linejoin="round"/>
  </svg>
  <svg id="heart" viewBox="0 0 24 24" fill="none">
    <path id="Stroke 1" fill-rule="evenodd" clip-rule="evenodd" d="M2.87187 11.5983C1.79887 8.24832 3.05287 4.41932 6.56987 3.28632C8.41987 2.68932 10.4619 3.04132 11.9999 4.19832C13.4549 3.07332 15.5719 2.69332 17.4199 3.28632C20.9369 4.41932 22.1989 8.24832 21.1269 11.5983C19.4569 16.9083 11.9999 20.9983 11.9999 20.9983C11.9999 20.9983 4.59787 16.9703 2.87187 11.5983Z" stroke="currentColor" stroke-width="1.5" stroke-linecap="round" stroke-linejoin="round"/>
    <path id="Stroke 3" d="M16 6.69995C17.07 7.04595 17.826 8.00095 17.917 9.12195" stroke="currentColor" stroke-width="1.5" stroke-linecap="round" stroke-linejoin="round"/>
  </svg>
  <svg id="heart-red" viewBox="0 0 40 38" fill="none">
    <g id="Stroke 1" filter="url(#filter0_d_4007_6659)">
    <path fill-rule="evenodd" clip-rule="evenodd" d="M10.8719 14.5983C9.79887 11.2483 11.0529 7.41932 14.5699 6.28632C16.4199 5.68932 18.4619 6.04132 19.9999 7.19832C21.4549 6.07332 23.5719 5.69332 25.4199 6.28632C28.9369 7.41932 30.1989 11.2483 29.1269 14.5983C27.4569 19.9083 19.9999 23.9983 19.9999 23.9983C19.9999 23.9983 12.5979 19.9703 10.8719 14.5983Z" fill="#F94545"/>
    </g>

    <path id="Stroke 3" d="M24 9.69995C25.07 10.046 25.826 11.001 25.917 12.122" stroke="white" stroke-width="1.5" stroke-linecap="round" stroke-linejoin="round"/>

    <defs>
    <filter id="filter0_d_4007_6659" x="0.5" y="0" width="38.9971" height="37.9983" filterUnits="userSpaceOnUse" color-interpolation-filters="sRGB">
    <feFlood flood-opacity="0" result="BackgroundImageFix"/>
    <feColorMatrix in="SourceAlpha" type="matrix" values="0 0 0 0 0 0 0 0 0 0 0 0 0 0 0 0 0 0 127 0" result="hardAlpha"/>
    <feOffset dy="4"/>
    <feGaussianBlur stdDeviation="5"/>
    <feComposite in2="hardAlpha" operator="out"/>
    <feColorMatrix type="matrix" values="0 0 0 0 0.976471 0 0 0 0 0.270588 0 0 0 0 0.270588 0 0 0 0.2 0"/>
    <feBlend mode="normal" in2="BackgroundImageFix" result="effect1_dropShadow_4007_6659"/>
    <feBlend mode="normal" in="SourceGraphic" in2="effect1_dropShadow_4007_6659" result="shape"/>
    </filter>
    </defs>
  </svg>

  <svg id="product21svg" viewBox="0 0 36 36" fill="none" xmlns="http://www.w3.org/2000/svg">
    <rect width="30" height="30" rx="5" fill="#7644E1"/>
    <rect width="30" height="30" rx="5" fill="white" fill-opacity="0.3"/>
    <path fill-rule="evenodd" clip-rule="evenodd" d="M28.4283 29.5892C25.4231 29.6401 22.473 29.638 19.5727 29.5892C16.3535 29.5892 14 27.293 14 24.1379V19.4883C14 16.3332 16.3535 14.037 19.5727 14.037C22.4889 13.9871 25.4411 13.9882 28.4283 14.037C31.6476 14.037 34 16.3343 34 19.4883V24.1379C34 27.293 31.6476 29.5892 28.4283 29.5892Z" stroke="#F8F8FB" stroke-width="1.5" stroke-linecap="round" stroke-linejoin="round"/>
    <path fill-rule="evenodd" clip-rule="evenodd" d="M27 21.9951C27 21.184 22.8425 18.5891 22.3709 19.0557C21.8993 19.5223 21.8539 24.424 22.3709 24.9346C22.8879 25.4469 27 22.8063 27 21.9951Z" stroke="#F8F8FB" stroke-width="1.5" stroke-linecap="round" stroke-linejoin="round"/>
    <path d="M24 30V34H20H28" stroke="#F8F8FB" stroke-width="1.5"/>
  </svg>
  <svg id="product22svg" viewBox="0 0 36 36" fill="none" xmlns="http://www.w3.org/2000/svg">
    <circle cx="15" cy="15" r="15" fill="#FFB700"/>
    <circle cx="15" cy="15" r="15" fill="white" fill-opacity="0.5"/>
    <path fill-rule="evenodd" clip-rule="evenodd" d="M15 18.5C15 15.8748 15.0281 15 18.5 15C21.9719 15 22 15.8748 22 18.5C22 21.1252 22.0111 22 18.5 22C14.9889 22 15 21.1252 15 18.5Z" stroke="#F8F8FB" stroke-width="1.5" stroke-linecap="round" stroke-linejoin="round"/>
    <path fill-rule="evenodd" clip-rule="evenodd" d="M26 18.5C26 15.8748 26.0281 15 29.5 15C32.9719 15 33 15.8748 33 18.5C33 21.1252 33.0111 22 29.5 22C25.9889 22 26 21.1252 26 18.5Z" stroke="#F8F8FB" stroke-width="1.5" stroke-linecap="round" stroke-linejoin="round"/>
    <path fill-rule="evenodd" clip-rule="evenodd" d="M15 29.5C15 26.8748 15.0281 26 18.5 26C21.9719 26 22 26.8748 22 29.5C22 32.1252 22.0111 33 18.5 33C14.9889 33 15 32.1252 15 29.5Z" stroke="#F8F8FB" stroke-width="1.5" stroke-linecap="round" stroke-linejoin="round"/>
    <path fill-rule="evenodd" clip-rule="evenodd" d="M26 29.5C26 26.8748 26.0281 26 29.5 26C32.9719 26 33 26.8748 33 29.5C33 32.1252 33.0111 33 29.5 33C25.9889 33 26 32.1252 26 29.5Z" stroke="#F8F8FB" stroke-width="1.5" stroke-linecap="round" stroke-linejoin="round"/>
  </svg>
  <svg id="product23svg" viewBox="0 0 35 36" fill="none" xmlns="http://www.w3.org/2000/svg">
    <path d="M14.4019 4.5C15.5566 2.5 18.4434 2.5 19.5981 4.5L29.1244 21C30.2791 23 28.8357 25.5 26.5263 25.5H7.47372C5.16432 25.5 3.72094 23 4.87564 21L14.4019 4.5Z" fill="#F94545"/>
    <path d="M14.4019 4.5C15.5566 2.5 18.4434 2.5 19.5981 4.5L29.1244 21C30.2791 23 28.8357 25.5 26.5263 25.5H7.47372C5.16432 25.5 3.72094 23 4.87564 21L14.4019 4.5Z" fill="white" fill-opacity="0.3"/>
    <path d="M23.7 19H13.3C12.582 19 12 19.5756 12 20.2857V26.7143C12 27.4244 12.582 28 13.3 28H23.7C24.418 28 25 27.4244 25 26.7143V20.2857C25 19.5756 24.418 19 23.7 19Z" stroke="#F8F8FB" stroke-width="1.5" stroke-linecap="round" stroke-linejoin="round"/>
    <path d="M33 19H28C27.4477 19 27 19.582 27 20.3V30.7C27 31.418 27.4477 32 28 32H33C33.5523 32 34 31.418 34 30.7V20.3C34 19.582 33.5523 19 33 19Z" stroke="#F8F8FB" stroke-width="1.5" stroke-linecap="round" stroke-linejoin="round"/>
    <path d="M30.5 22.5H30.51" stroke="#F8F8FB" stroke-width="2" stroke-linecap="round" stroke-linejoin="round"/>
    <path d="M15 32H22" stroke="#F8F8FB" stroke-width="1.5" stroke-linecap="round" stroke-linejoin="round"/>
    <path d="M18.5 28V32" stroke="#F8F8FB" stroke-width="1.5" stroke-linecap="round" stroke-linejoin="round"/>
  </svg>
  <svg id="product24svg" viewBox="0 0 33 36" fill="none" xmlns="http://www.w3.org/2000/svg">
    <path d="M13.5 0.866025C14.4282 0.330127 15.5718 0.330127 16.5 0.866025L26.4904 6.63397C27.4186 7.16987 27.9904 8.16025 27.9904 9.23205V20.768C27.9904 21.8397 27.4186 22.8301 26.4904 23.366L16.5 29.134C15.5718 29.6699 14.4282 29.6699 13.5 29.134L3.50962 23.366C2.58142 22.8301 2.00962 21.8397 2.00962 20.768V9.23205C2.00962 8.16025 2.58142 7.16987 3.50962 6.63397L13.5 0.866025Z" fill="#7644E1"/>
    <path d="M13.5 0.866025C14.4282 0.330127 15.5718 0.330127 16.5 0.866025L26.4904 6.63397C27.4186 7.16987 27.9904 8.16025 27.9904 9.23205V20.768C27.9904 21.8397 27.4186 22.8301 26.4904 23.366L16.5 29.134C15.5718 29.6699 14.4282 29.6699 13.5 29.134L3.50962 23.366C2.58142 22.8301 2.00962 21.8397 2.00962 20.768V9.23205C2.00962 8.16025 2.58142 7.16987 3.50962 6.63397L13.5 0.866025Z" fill="white" fill-opacity="0.4"/>
    <path d="M26 14H16C14.8954 14 14 14.8954 14 16V32C14 33.1046 14.8954 34 16 34H26C27.1046 34 28 33.1046 28 32V16C28 14.8954 27.1046 14 26 14Z" stroke="#F8F8FB" stroke-width="1.5" stroke-linecap="round" stroke-linejoin="round"/>
    <path d="M21 30H21.01" stroke="#F8F8FB" stroke-width="2" stroke-linecap="round" stroke-linejoin="round"/>
  </svg>
  <svg id="product25svg" viewBox="0 0 36 36" fill="none" xmlns="http://www.w3.org/2000/svg">
    <path d="M17.0489 2.92705C17.3483 2.00574 18.6517 2.00574 18.9511 2.92705L21.8167 11.7467C21.9506 12.1587 22.3346 12.4377 22.7678 12.4377H32.0413C33.0101 12.4377 33.4128 13.6773 32.6291 14.2467L25.1267 19.6976C24.7762 19.9522 24.6295 20.4036 24.7634 20.8156L27.6291 29.6353C27.9284 30.5566 26.874 31.3227 26.0902 30.7533L18.5878 25.3024C18.2373 25.0478 17.7627 25.0478 17.4122 25.3024L9.90976 30.7533C9.12605 31.3227 8.07157 30.5566 8.37092 29.6353L11.2366 20.8156C11.3705 20.4036 11.2238 19.9522 10.8733 19.6976L3.37088 14.2467C2.58717 13.6773 2.98994 12.4377 3.95867 12.4377H13.2322C13.6654 12.4377 14.0494 12.1587 14.1833 11.7467L17.0489 2.92705Z" fill="#0071DC"/>
    <path d="M17.0489 2.92705C17.3483 2.00574 18.6517 2.00574 18.9511 2.92705L21.8167 11.7467C21.9506 12.1587 22.3346 12.4377 22.7678 12.4377H32.0413C33.0101 12.4377 33.4128 13.6773 32.6291 14.2467L25.1267 19.6976C24.7762 19.9522 24.6295 20.4036 24.7634 20.8156L27.6291 29.6353C27.9284 30.5566 26.874 31.3227 26.0902 30.7533L18.5878 25.3024C18.2373 25.0478 17.7627 25.0478 17.4122 25.3024L9.90976 30.7533C9.12605 31.3227 8.07157 30.5566 8.37092 29.6353L11.2366 20.8156C11.3705 20.4036 11.2238 19.9522 10.8733 19.6976L3.37088 14.2467C2.58717 13.6773 2.98994 12.4377 3.95867 12.4377H13.2322C13.6654 12.4377 14.0494 12.1587 14.1833 11.7467L17.0489 2.92705Z" fill="white" fill-opacity="0.6"/>
    <path fill-rule="evenodd" clip-rule="evenodd" d="M28.4283 29.5892C25.4231 29.6401 22.473 29.638 19.5727 29.5892C16.3535 29.5892 14 27.293 14 24.1379V19.4883C14 16.3332 16.3535 14.037 19.5727 14.037C22.4889 13.9871 25.4411 13.9882 28.4283 14.037C31.6476 14.037 34 16.3343 34 19.4883V24.1379C34 27.293 31.6476 29.5892 28.4283 29.5892Z" stroke="#F8F8FB" stroke-width="1.5" stroke-linecap="round" stroke-linejoin="round"/>
    <path fill-rule="evenodd" clip-rule="evenodd" d="M27 21.9951C27 21.184 22.8425 18.5891 22.3709 19.0557C21.8993 19.5223 21.8539 24.424 22.3709 24.9346C22.8879 25.4469 27 22.8063 27 21.9951Z" stroke="#F8F8FB" stroke-width="1.5" stroke-linecap="round" stroke-linejoin="round"/>
    <path d="M24 30V34H20H28" stroke="#F8F8FB" stroke-width="1.5"/>
  </svg>
  <svg id="product26svg" viewBox="0 0 36 36" fill="none" xmlns="http://www.w3.org/2000/svg">
    <path d="M13.9788 3.63133C16.2628 1.56871 19.7372 1.56871 22.0212 3.63133L28.7193 9.67986C29.6552 10.5251 30.3011 11.6437 30.5651 12.8769L32.4543 21.7018C33.0985 24.7112 31.3613 27.7201 28.433 28.6668L19.8458 31.4432C18.6459 31.8312 17.3541 31.8312 16.1542 31.4432L7.56699 28.6668C4.63867 27.7201 2.90151 24.7112 3.54574 21.7018L5.43492 12.8769C5.69892 11.6437 6.34477 10.5251 7.28074 9.67987L13.9788 3.63133Z" fill="#FFB700"/>
    <path d="M13.9788 3.63133C16.2628 1.56871 19.7372 1.56871 22.0212 3.63133L28.7193 9.67986C29.6552 10.5251 30.3011 11.6437 30.5651 12.8769L32.4543 21.7018C33.0985 24.7112 31.3613 27.7201 28.433 28.6668L19.8458 31.4432C18.6459 31.8312 17.3541 31.8312 16.1542 31.4432L7.56699 28.6668C4.63867 27.7201 2.90151 24.7112 3.54574 21.7018L5.43492 12.8769C5.69892 11.6437 6.34477 10.5251 7.28074 9.67987L13.9788 3.63133Z" fill="white" fill-opacity="0.6"/>
    <path d="M23.4521 17.2646C23.1414 17.2646 22.8896 17.5164 22.8896 17.8271V23.4521C22.8896 23.7628 23.1414 24.0145 23.4521 24.0145C23.7628 24.0145 24.0146 23.7628 24.0146 23.4521V17.8271C24.0146 17.5164 23.7628 17.2646 23.4521 17.2646Z" fill="white"/>
    <path d="M21.2021 27.0146C20.8914 27.0146 20.6396 27.2664 20.6396 27.5771V30.9522C20.6396 31.2629 20.8914 31.5146 21.2021 31.5146C21.5128 31.5146 21.7646 31.2629 21.7646 30.9522V27.5771C21.7646 27.2664 21.5128 27.0146 21.2021 27.0146Z" fill="white"/>
    <path d="M32.8271 32.2647H28.4262C28.718 31.8438 28.8897 31.3334 28.8897 30.7835V27.371C28.8897 26.0547 27.9088 24.964 26.6397 24.7897V17.2646C26.6397 15.8173 25.4621 14.6396 24.0147 14.6396C22.5674 14.6396 21.3898 15.8173 21.3898 17.2646V24.7897C20.1206 24.9639 19.1398 26.0547 19.1398 27.371V30.7835C19.1398 31.3334 19.3114 31.8438 19.6034 32.2647H15.2021C14.8914 32.2647 14.6396 32.5165 14.6396 32.8272C14.6396 33.1379 14.8914 33.3897 15.2021 33.3897H32.8271C33.1378 33.3897 33.3895 33.1379 33.3895 32.8272C33.3895 32.5165 33.1378 32.2647 32.8271 32.2647H32.8271ZM22.5146 17.2647C22.5146 16.4376 23.1875 15.7647 24.0146 15.7647C24.8418 15.7647 25.5146 16.4376 25.5146 17.2647V24.7647H22.5146V17.2647ZM21.7459 32.2647C20.9292 32.2647 20.2646 31.6002 20.2646 30.7835V27.371C20.2646 26.5543 20.9292 25.8898 21.7459 25.8898H26.2832C27.0999 25.8898 27.7645 26.5543 27.7645 27.371V30.7835C27.7645 31.6002 27.0999 32.2647 26.2832 32.2647H21.7459Z" fill="white"/>
  </svg>
  <svg id="product27svg" viewBox="0 0 35 36" fill="none" xmlns="http://www.w3.org/2000/svg">
    <path d="M14.8787 2.12132C16.0503 0.949748 17.9497 0.949747 19.1213 2.12132L31.8787 14.8787C33.0503 16.0503 33.0503 17.9497 31.8787 19.1213L19.1213 31.8787C17.9497 33.0503 16.0503 33.0503 14.8787 31.8787L2.12132 19.1213C0.949748 17.9497 0.949747 16.0503 2.12132 14.8787L14.8787 2.12132Z" fill="#0071DC"/>
    <path d="M14.8787 2.12132C16.0503 0.949748 17.9497 0.949747 19.1213 2.12132L31.8787 14.8787C33.0503 16.0503 33.0503 17.9497 31.8787 19.1213L19.1213 31.8787C17.9497 33.0503 16.0503 33.0503 14.8787 31.8787L2.12132 19.1213C0.949748 17.9497 0.949747 16.0503 2.12132 14.8787L14.8787 2.12132Z" fill="white" fill-opacity="0.3"/>
    <path d="M32.9076 34.4612C32.9917 30.0729 30.2217 26.0365 26.3813 24.5387C22.5059 23.0304 17.9767 24.339 15.3649 27.7235C13.9179 29.5999 13.0508 32.0225 13.0954 34.4612C13.1103 35.1392 14.1013 35.1392 14.0864 34.4612C14.0121 30.5669 16.4551 26.8934 19.8844 25.5533C21.6586 24.8595 23.6061 24.7702 25.4244 25.3168C27.1737 25.8372 28.7348 26.9355 29.8942 28.4174C31.1975 30.0834 31.9558 32.2906 31.916 34.4612C31.9013 35.1339 32.8923 35.1339 32.9072 34.4612L32.9076 34.4612Z" fill="white"/>
    <path d="M12.4793 34.9859H14.5755H19.6102H25.6759H30.9191C31.7715 34.9859 32.6338 35.0174 33.486 34.9859H33.5208C34.1601 34.9859 34.1601 33.9349 33.5208 33.9349H31.4246H26.3899H20.3242H15.0811C14.2286 33.9349 13.3664 33.9034 12.5141 33.9349H12.4793C11.8402 33.9349 11.8402 34.9859 12.4793 34.9859Z" fill="white"/>
    <path d="M21.5283 20.1714C21.8802 19.3516 22.4105 18.474 22.2122 17.5384C22.1329 17.1601 21.9347 16.8131 21.687 16.5347C21.4986 16.3191 21.3253 16.1142 21.2857 15.8094C21.2411 15.4469 21.4293 15.0684 21.5484 14.7373C21.6771 14.3799 21.8061 14.0227 21.9348 13.6652C22.029 13.4024 21.8308 13.0871 21.588 13.0187C21.3104 12.9399 21.0726 13.1186 20.9784 13.3866C20.8743 13.681 20.7653 13.9752 20.6612 14.2695C20.5423 14.5954 20.3887 14.9318 20.3292 15.2733C20.2648 15.6464 20.2796 16.0301 20.4086 16.3873C20.5423 16.7605 20.7653 17.018 21.0081 17.3071C21.3203 17.6803 21.3154 18.1323 21.1321 18.5684C20.9784 18.9258 20.8248 19.283 20.6713 19.6351C20.5622 19.8926 20.602 20.2028 20.8496 20.3551C21.0676 20.492 21.4195 20.429 21.5284 20.1714L21.5283 20.1714Z" fill="white"/>
    <path d="M24.9863 21.7535C25.3382 20.9336 25.8685 20.056 25.6702 19.1205C25.5909 18.7422 25.3927 18.3952 25.145 18.1167C24.9566 17.9012 24.7833 17.6963 24.7437 17.3914C24.6991 17.0289 24.8873 16.6504 25.0064 16.3193C25.1352 15.9619 25.2641 15.6047 25.3929 15.2472C25.487 14.9844 25.2888 14.6691 25.046 14.6008C24.7684 14.522 24.5306 14.7007 24.4364 14.9686C24.3323 15.263 24.2233 15.5572 24.1192 15.8516C24.0003 16.1774 23.8467 16.5138 23.7872 16.8553C23.7228 17.2285 23.7376 17.6121 23.8666 17.9693C24.0003 18.3425 24.2233 18.6 24.4661 18.8891C24.7783 19.2623 24.7734 19.7143 24.5901 20.1504C24.4364 20.5078 24.2828 20.865 24.1293 21.2171C24.0202 21.4747 24.06 21.7848 24.3076 21.9371C24.5206 22.074 24.8725 22.011 24.9864 21.7535L24.9863 21.7535Z" fill="white"/>
  </svg>
  <svg id="product28svg" viewBox="0 0 33 36" fill="none" xmlns="http://www.w3.org/2000/svg">
    <path d="M13.8519 0.475538C14.587 0.171056 15.413 0.171056 16.1481 0.475538L24.4586 3.91786C25.1936 4.22234 25.7777 4.80636 26.0821 5.54145L29.5245 13.8519C29.8289 14.587 29.8289 15.413 29.5245 16.1481L26.0821 24.4586C25.7777 25.1936 25.1936 25.7777 24.4586 26.0821L16.1481 29.5245C15.413 29.8289 14.587 29.8289 13.8519 29.5245L5.54145 26.0821C4.80636 25.7777 4.22234 25.1936 3.91786 24.4586L0.475538 16.1481C0.171056 15.413 0.171056 14.587 0.475538 13.8519L3.91786 5.54145C4.22234 4.80636 4.80636 4.22234 5.54145 3.91786L13.8519 0.475538Z" fill="#F94545"/>
    <path d="M13.8519 0.475538C14.587 0.171056 15.413 0.171056 16.1481 0.475538L24.4586 3.91786C25.1936 4.22234 25.7777 4.80636 26.0821 5.54145L29.5245 13.8519C29.8289 14.587 29.8289 15.413 29.5245 16.1481L26.0821 24.4586C25.7777 25.1936 25.1936 25.7777 24.4586 26.0821L16.1481 29.5245C15.413 29.8289 14.587 29.8289 13.8519 29.5245L5.54145 26.0821C4.80636 25.7777 4.22234 25.1936 3.91786 24.4586L0.475538 16.1481C0.171056 15.413 0.171056 14.587 0.475538 13.8519L3.91786 5.54145C4.22234 4.80636 4.80636 4.22234 5.54145 3.91786L13.8519 0.475538Z" fill="white" fill-opacity="0.3"/>
    <path d="M27.9226 34.9995C27.9083 34.9995 27.894 34.9995 27.8797 34.9987C27.5985 34.9866 27.3339 34.8569 27.153 34.6419C25.5902 32.7836 25.2925 30.5985 26.4456 29.4455C27.5984 28.2926 29.7848 28.5902 31.6422 30.1527C31.8569 30.3331 31.987 30.5981 31.9993 30.8795C32.0115 31.1615 31.9041 31.4376 31.7044 31.6373L31.6254 31.7166L31.5189 31.7502C31.2665 31.8303 30.9724 31.8343 30.6913 31.8298C30.4713 31.8329 30.1398 31.829 30.0449 31.8933C29.5424 32.2321 29.1102 32.6838 28.7945 33.1998C28.7828 33.2485 28.8056 33.4764 28.8191 33.6124C28.8462 33.8827 28.874 34.1625 28.79 34.4046L28.7117 34.6293L28.6374 34.7036C28.448 34.8932 28.1895 34.9996 27.9225 34.9996L27.9226 34.9995ZM27.0936 30.0938C26.3114 30.8761 26.6456 32.6145 27.8544 34.0522C27.8748 34.0764 27.9008 34.0822 27.919 34.0832C27.9212 34.0827 27.924 34.0827 27.9279 34.0832C27.937 34.0039 27.9187 33.8187 27.9071 33.7036C27.873 33.3617 27.8377 33.008 28.0126 32.7221C28.3965 32.0946 28.9217 31.5455 29.5322 31.1337C29.86 30.9121 30.3016 30.9099 30.6921 30.9134C30.8248 30.9126 30.9658 30.9139 31.0815 30.9036C31.0782 30.888 31.0703 30.87 31.0524 30.8549C29.615 29.6458 27.8763 29.3123 27.0936 30.0938L27.0936 30.0938Z" fill="white"/>
    <path d="M13.7198 19.2546C12.6724 19.2546 11.4578 18.773 10.358 17.8479C10.1434 17.6675 10.0132 17.4025 10.0009 17.121C9.98879 16.8391 10.0962 16.563 10.2959 16.3633L10.3703 16.2885L10.5958 16.2107C10.8375 16.1274 11.1175 16.1546 11.3873 16.1816C11.5231 16.1954 11.7507 16.217 11.8204 16.1964C12.3162 15.8901 12.7682 15.4579 13.107 14.9562C13.1709 14.8612 13.1705 14.5296 13.1704 14.3103C13.1702 14.0272 13.17 13.7349 13.2502 13.4821L13.2839 13.3755L13.3629 13.2967C13.5625 13.097 13.84 12.9843 14.1207 13.0018C14.4018 13.0139 14.6665 13.1436 14.8473 13.3585C16.4101 15.2168 16.7079 17.402 15.5547 18.555C15.0844 19.0253 14.4417 19.2545 13.7198 19.2545L13.7198 19.2546ZM10.9168 17.0735V17.0815C10.9176 17.0994 10.9238 17.1254 10.9479 17.146C12.3856 18.3554 14.1245 18.6884 14.9067 17.9069C15.6889 17.1245 15.3547 15.3861 14.1459 13.9484C14.1306 13.9305 14.1125 13.9225 14.0969 13.9193C14.0867 14.0352 14.0871 14.178 14.0871 14.3092C14.0876 14.699 14.0879 15.1407 13.8668 15.4684C13.455 16.0785 12.9055 16.6038 12.2781 16.9879C11.993 17.1629 11.6387 17.1275 11.2966 17.0934C11.1825 17.0829 11.0003 17.0645 10.9169 17.0735L10.9168 17.0735ZM15.2307 18.2309H15.2352H15.2307Z" fill="white"/>
    <path d="M24.3319 31.1291C22.2197 31.1291 19.6 29.8951 17.3524 27.6478C15.7554 26.0508 14.6099 24.1836 14.1275 22.3901C13.6208 20.5075 13.8974 18.9159 14.9059 17.9078C15.914 16.8994 17.5057 16.6227 19.3883 17.1294C21.1821 17.6124 23.0495 18.7578 24.6463 20.3547C26.2433 21.9517 27.3888 23.8189 27.8712 25.6125C28.3779 27.495 28.1013 29.0867 27.0928 30.0947C26.3931 30.7948 25.4306 31.1291 24.3315 31.1291H24.3319ZM17.6478 17.7985C16.7755 17.7985 16.0554 18.0545 15.5539 18.5557C14.7871 19.3224 14.5949 20.5998 15.0125 22.1521C15.4541 23.7929 16.5153 25.5147 18.0006 27C20.9527 29.9521 24.8196 31.0721 26.445 29.4469C27.2118 28.6802 27.4039 27.4028 26.9863 25.8505C26.5447 24.2097 25.4835 22.4879 23.9983 21.0027C22.5131 19.5171 20.7913 18.4559 19.1502 18.0146C18.6131 17.8701 18.1091 17.7984 17.6476 17.7984L17.6478 17.7985Z" fill="white"/>
  </svg>
  <svg id="product29svg" viewBox="0 0 33 36" fill="none" xmlns="http://www.w3.org/2000/svg">
    <path d="M13.5 0.866025C14.4282 0.330127 15.5718 0.330127 16.5 0.866025L26.4904 6.63397C27.4186 7.16987 27.9904 8.16025 27.9904 9.23205V20.768C27.9904 21.8397 27.4186 22.8301 26.4904 23.366L16.5 29.134C15.5718 29.6699 14.4282 29.6699 13.5 29.134L3.50962 23.366C2.58142 22.8301 2.00962 21.8397 2.00962 20.768V9.23205C2.00962 8.16025 2.58142 7.16987 3.50962 6.63397L13.5 0.866025Z" fill="#67B044"/>
    <path d="M13.5 0.866025C14.4282 0.330127 15.5718 0.330127 16.5 0.866025L26.4904 6.63397C27.4186 7.16987 27.9904 8.16025 27.9904 9.23205V20.768C27.9904 21.8397 27.4186 22.8301 26.4904 23.366L16.5 29.134C15.5718 29.6699 14.4282 29.6699 13.5 29.134L3.50962 23.366C2.58142 22.8301 2.00962 21.8397 2.00962 20.768V9.23205C2.00962 8.16025 2.58142 7.16987 3.50962 6.63397L13.5 0.866025Z" fill="white" fill-opacity="0.5"/>
    <path d="M12.577 22.4286H12.6634L14.889 34.56C14.9351 34.8115 15.1772 35 15.4598 35H24.6845C24.967 35 25.2092 34.8167 25.2554 34.56L27.3886 22.9368C27.4925 22.7639 27.5789 22.5859 27.6596 22.4077C27.9365 22.3658 28.144 22.1614 28.144 21.8996V19.8043C28.144 19.731 28.1266 19.6577 28.092 19.5947C27.9075 18.0966 27.0658 16.7557 25.7974 15.7395L26.979 14.0477H29.4234C29.7406 14.0477 30 13.812 30 13.5239C30 13.2357 29.7406 13 29.4234 13H26.6618C26.4659 13 26.2813 13.0944 26.1717 13.2462L24.8745 15.1111C23.5311 14.315 21.865 13.8383 20.0719 13.8383C15.9208 13.8383 12.4389 16.3631 12.0519 19.6001C12.0232 19.6628 12 19.7363 12 19.8096V21.9049C12.0002 22.1929 12.2596 22.4286 12.5768 22.4286L12.577 22.4286ZM24.194 33.9525H15.9438L13.8279 22.4286H26.3039L24.194 33.9525ZM20.0717 14.8857C21.6399 14.8857 23.0985 15.2944 24.2689 15.991L23.2657 17.4366C23.0985 17.6829 23.1734 18.0024 23.4445 18.1596C23.5425 18.212 23.6462 18.2381 23.75 18.2381C23.9404 18.2381 24.1305 18.1491 24.2402 17.9919L25.1799 16.6353C26.0331 17.3633 26.6385 18.2695 26.875 19.2806H13.2689C13.8453 16.7767 16.6991 14.8857 20.0717 14.8857L20.0717 14.8857ZM13.1533 20.3332H26.9902V21.3807H13.1533V20.3332Z" fill="white"/>
  </svg>
  <svg id="product30svg" viewBox="0 0 36 36" fill="none" xmlns="http://www.w3.org/2000/svg">
    <path d="M7.5 27.9904C9.86806 29.3576 12.5648 30.0515 15.2987 29.997C18.0325 29.9426 20.6995 29.1419 23.0113 27.6815C25.323 26.2211 27.1916 24.1565 28.415 21.7111C29.6384 19.2656 30.17 16.5322 29.9524 13.8065C29.7349 11.0808 28.7764 8.46636 27.1806 6.24592C25.5848 4.02548 23.4123 2.2835 20.8982 1.20829C18.3841 0.133086 15.6238 -0.234428 12.916 0.145481C10.2081 0.525389 7.65554 1.63827 5.53434 3.3638L15 15L7.5 27.9904Z" fill="#F94545"/>
    <path d="M7.5 27.9904C9.86806 29.3576 12.5648 30.0515 15.2987 29.997C18.0325 29.9426 20.6995 29.1419 23.0113 27.6815C25.323 26.2211 27.1916 24.1565 28.415 21.7111C29.6384 19.2656 30.17 16.5322 29.9524 13.8065C29.7349 11.0808 28.7764 8.46636 27.1806 6.24592C25.5848 4.02548 23.4123 2.2835 20.8982 1.20829C18.3841 0.133086 15.6238 -0.234428 12.916 0.145481C10.2081 0.525389 7.65554 1.63827 5.53434 3.3638L15 15L7.5 27.9904Z" fill="white" fill-opacity="0.6"/>
    <path d="M30 20H31C32.0609 20 33.0783 20.4214 33.8284 21.1716C34.5786 21.9217 35 22.9391 35 24C35 25.0609 34.5786 26.0783 33.8284 26.8284C33.0783 27.5786 32.0609 28 31 28H30" stroke="white" stroke-width="1.5" stroke-linecap="round" stroke-linejoin="round"/>
    <path d="M14 20H30V29C30 30.0609 29.5786 31.0783 28.8284 31.8284C28.0783 32.5786 27.0609 33 26 33H18C16.9391 33 15.9217 32.5786 15.1716 31.8284C14.4214 31.0783 14 30.0609 14 29V20Z" stroke="white" stroke-width="1.5" stroke-linecap="round" stroke-linejoin="round"/>
    <path d="M18 13V16" stroke="white" stroke-width="1.5" stroke-linecap="round" stroke-linejoin="round"/>
    <path d="M22 13V16" stroke="white" stroke-width="1.5" stroke-linecap="round" stroke-linejoin="round"/>
    <path d="M26 13V16" stroke="white" stroke-width="1.5" stroke-linecap="round" stroke-linejoin="round"/>
  </svg>
  <svg id="product31svg" viewBox="0 0 35 36" fill="none" xmlns="http://www.w3.org/2000/svg">
    <g opacity="0.5">
    <path d="M14.4019 4.5C15.5566 2.5 18.4434 2.5 19.5981 4.5L29.1244 21C30.2791 23 28.8357 25.5 26.5263 25.5H7.47372C5.16432 25.5 3.72094 23 4.87564 21L14.4019 4.5Z" fill="#0071DC"/>
    <path d="M14.4019 4.5C15.5566 2.5 18.4434 2.5 19.5981 4.5L29.1244 21C30.2791 23 28.8357 25.5 26.5263 25.5H7.47372C5.16432 25.5 3.72094 23 4.87564 21L14.4019 4.5Z" fill="white" fill-opacity="0.6"/>
    </g>
    <path d="M15.0298 17C13.3626 17 12 18.4323 12 20.1854C12 21.1901 12.4479 22.0863 13.1403 22.6677V31.3199V31.3197C13.1403 31.6954 13.4301 32 13.7873 32H32.2127C32.5699 32 32.8597 31.6954 32.8597 31.3197V22.668C33.5521 22.0866 34 21.1904 34 20.1857C34 18.4328 32.6376 17.0003 30.9702 17.0003L15.0298 17ZM15.0298 18.3606H23.2659C24.2388 18.3606 25.0016 19.1625 25.0016 20.1854C25.0016 20.8518 24.6709 21.4135 24.1704 21.7356C23.9783 21.8591 23.8613 22.0789 23.8613 22.3156V30.6393H14.4342V22.3156C14.4342 22.079 14.3171 21.8592 14.1252 21.7356C13.6247 21.4135 13.294 20.8518 13.294 20.1854C13.294 19.1625 14.0568 18.3606 15.0297 18.3606H15.0298ZM25.7464 18.3606H30.9704C31.9434 18.3606 32.7062 19.1625 32.7062 20.1854C32.7062 20.8518 32.3754 21.4135 31.875 21.7356H31.8748C31.6829 21.8591 31.5657 22.0789 31.5657 22.3156V30.6393H25.1557V22.6679C25.8481 22.0865 26.296 21.1903 26.296 20.1856C26.296 19.508 26.0924 18.8784 25.7464 18.3608L25.7464 18.3606ZM18.2226 21.7773H18.2224C18.0543 21.7824 17.8949 21.8563 17.7775 21.9831L16.0366 23.8134C15.9124 23.9404 15.8418 24.1142 15.8405 24.2965C15.8393 24.4787 15.9075 24.6537 16.0299 24.7824C16.1525 24.9113 16.319 24.983 16.4923 24.9817C16.6656 24.9804 16.831 24.9061 16.9518 24.7754L18.6927 22.945V22.9452C18.8841 22.7495 18.9415 22.4505 18.8375 22.192C18.7335 21.9337 18.4892 21.769 18.2224 21.7773H18.2226ZM20.4076 23.2294H20.4074C20.2394 23.2347 20.0799 23.3083 19.9628 23.4351L17.4179 26.1106C17.2935 26.2376 17.2229 26.4117 17.2217 26.5937C17.2204 26.7759 17.2886 26.9509 17.4112 27.0798C17.5336 27.2085 17.7003 27.2803 17.8734 27.2789C18.0467 27.2776 18.2123 27.2034 18.3329 27.0728L20.8778 24.3973C21.0691 24.2016 21.1267 23.9026 21.0227 23.6441C20.9186 23.3858 20.6743 23.221 20.4075 23.2294L20.4076 23.2294ZM21.7888 25.5266C21.6207 25.5319 21.4611 25.6058 21.3439 25.7326L19.603 27.5629V27.5627C19.4789 27.6897 19.4085 27.8637 19.4073 28.0456C19.4062 28.2276 19.4744 28.4026 19.5968 28.5313C19.7192 28.66 19.8855 28.7317 20.0587 28.7306C20.2318 28.7293 20.3972 28.6552 20.5179 28.5248L22.2589 26.6945C22.4503 26.499 22.5079 26.1999 22.4039 25.9415C22.2997 25.683 22.0554 25.5185 21.7887 25.5266L21.7888 25.5266Z" fill="white"/>
  </svg>
  <svg width="23" height="17" viewBox="0 0 23 17" fill="none" xmlns="http://www.w3.org/2000/svg">
    <path d="M9.45277 1.1122C10.253 0.0530214 11.8441 0.0530201 12.6443 1.1122L21.6591 13.0444C22.6545 14.362 21.7147 16.25 20.0633 16.25H2.03375C0.382421 16.25 -0.557459 14.362 0.437972 13.0444L9.45277 1.1122Z" fill="white"/>
  </svg>

</svg>
