<svg id="product26svg" viewBox="0 0 36 36" fill="none" xmlns="http://www.w3.org/2000/svg">
  <path d="M13.9788 3.63133C16.2628 1.56871 19.7372 1.56871 22.0212 3.63133L28.7193 9.67986C29.6552 10.5251 30.3011 11.6437 30.5651 12.8769L32.4543 21.7018C33.0985 24.7112 31.3613 27.7201 28.433 28.6668L19.8458 31.4432C18.6459 31.8312 17.3541 31.8312 16.1542 31.4432L7.56699 28.6668C4.63867 27.7201 2.90151 24.7112 3.54574 21.7018L5.43492 12.8769C5.69892 11.6437 6.34477 10.5251 7.28074 9.67987L13.9788 3.63133Z" fill="#FFB700"/>
  <path d="M13.9788 3.63133C16.2628 1.56871 19.7372 1.56871 22.0212 3.63133L28.7193 9.67986C29.6552 10.5251 30.3011 11.6437 30.5651 12.8769L32.4543 21.7018C33.0985 24.7112 31.3613 27.7201 28.433 28.6668L19.8458 31.4432C18.6459 31.8312 17.3541 31.8312 16.1542 31.4432L7.56699 28.6668C4.63867 27.7201 2.90151 24.7112 3.54574 21.7018L5.43492 12.8769C5.69892 11.6437 6.34477 10.5251 7.28074 9.67987L13.9788 3.63133Z" fill="white" fill-opacity="0.6"/>
  <path d="M23.4521 17.2646C23.1414 17.2646 22.8896 17.5164 22.8896 17.8271V23.4521C22.8896 23.7628 23.1414 24.0145 23.4521 24.0145C23.7628 24.0145 24.0146 23.7628 24.0146 23.4521V17.8271C24.0146 17.5164 23.7628 17.2646 23.4521 17.2646Z" fill="currentColor"/>
  <path d="M21.2021 27.0146C20.8914 27.0146 20.6396 27.2664 20.6396 27.5771V30.9522C20.6396 31.2629 20.8914 31.5146 21.2021 31.5146C21.5128 31.5146 21.7646 31.2629 21.7646 30.9522V27.5771C21.7646 27.2664 21.5128 27.0146 21.2021 27.0146Z" fill="currentColor"/>
  <path d="M32.8271 32.2647H28.4262C28.718 31.8438 28.8897 31.3334 28.8897 30.7835V27.371C28.8897 26.0547 27.9088 24.964 26.6397 24.7897V17.2646C26.6397 15.8173 25.4621 14.6396 24.0147 14.6396C22.5674 14.6396 21.3898 15.8173 21.3898 17.2646V24.7897C20.1206 24.9639 19.1398 26.0547 19.1398 27.371V30.7835C19.1398 31.3334 19.3114 31.8438 19.6034 32.2647H15.2021C14.8914 32.2647 14.6396 32.5165 14.6396 32.8272C14.6396 33.1379 14.8914 33.3897 15.2021 33.3897H32.8271C33.1378 33.3897 33.3895 33.1379 33.3895 32.8272C33.3895 32.5165 33.1378 32.2647 32.8271 32.2647H32.8271ZM22.5146 17.2647C22.5146 16.4376 23.1875 15.7647 24.0146 15.7647C24.8418 15.7647 25.5146 16.4376 25.5146 17.2647V24.7647H22.5146V17.2647ZM21.7459 32.2647C20.9292 32.2647 20.2646 31.6002 20.2646 30.7835V27.371C20.2646 26.5543 20.9292 25.8898 21.7459 25.8898H26.2832C27.0999 25.8898 27.7645 26.5543 27.7645 27.371V30.7835C27.7645 31.6002 27.0999 32.2647 26.2832 32.2647H21.7459Z" fill="currentColor"/>
</svg>
