<svg xmlns="http://www.w3.org/2000/svg" viewBox="0 0 200 200">
  <radialGradient id="a1" cx=".66" fx=".66" cy=".3125" fy=".3125" gradientTransform="scale(1.5)">
    <stop offset="0.1" stop-color="currentColor"></stop>
    <stop offset=".5" stop-color="currentColor" stop-opacity=".4"></stop>
    <stop offset=".6" stop-color="currentColor" stop-opacity=".3"></stop>
    <stop offset=".8" stop-color="currentColor" stop-opacity=".2"></stop>
    <stop offset="1" stop-color="currentColor" stop-opacity="0"></stop>
  </radialGradient> 
  <circle
  transform-origin="center"
  fill="none"
  stroke="url(#a1)"
  stroke-width="8"
  stroke-linecap="round"
  stroke-dasharray="200 1000"
  stroke-dashoffset="50"
  cx="100"
  cy="100"
  r="70">
    <animateTransform
    type="rotate"
    attributeName="transform"
    calcMode="spline"
    dur="0.3"
    values="360;0"
    keyTimes="0;1"
    keySplines="0 0 1 1"
    repeatCount="indefinite"></animateTransform>
  </circle>
  <circle
  transform-origin="center"
  fill="red"
  opacity=".2"
  stroke="currentColor"
  stroke-width="14"
  stroke-linecap="round"
  cx="100"
  cy="100"
  r="70"></circle>
  <g transform="translate(57, 52) scale(0.7)" fill="currentColor">
    <path d="M45.41,69.61c.35-2.91-8.3-14.06-9.88-19.4-3.39-5.38-4.59-13.94-.9-19.63,1.47-2.26.84-4.22.84-7.35,0-31,54.27-31,54.27,0,0,3.92-.89,4.84,1.22,7.93,3.55,5.15,1.73,14.29-1.27,19.07-1.93,5.61-11,16.22-10.37,19.4.57,15.9-34,15.37-33.91,0Zm19.78,27.5H67.1A3.13,3.13,0,0,0,70.22,94V88.93a3.12,3.12,0,0,0-3.12-3.12H55.79a3.13,3.13,0,0,0-3.12,3.12V94a3.14,3.14,0,0,0,3.12,3.12h1.94L54,116H68.76L65.19,97.11ZM0,116C1.47,97-2.26,97.77,13.65,91.82A122.36,122.36,0,0,0,36,80.51L49.6,116ZM87.54,78.9a91.08,91.08,0,0,0,20.61,10.29C123,94.13,123,94.82,122.86,116H73.45L87.54,78.9Z" fill="currentColor" />
  </g>
    <image href="src/assets/favicon.ico" x="50" y="50" width="80%" height="80%" />
</svg>

<svg id="Admin" fill="currentColor" viewBox="0 0 122.88 115.96">
  <path class="cls-1" d="M45.41,69.61c.35-2.91-8.3-14.06-9.88-19.4-3.39-5.38-4.59-13.94-.9-19.63,1.47-2.26.84-4.22.84-7.35,0-31,54.27-31,54.27,0,0,3.92-.89,4.84,1.22,7.93,3.55,5.15,1.73,14.29-1.27,19.07-1.93,5.61-11,16.22-10.37,19.4.57,15.9-34,15.37-33.91,0Zm19.78,27.5H67.1A3.13,3.13,0,0,0,70.22,94V88.93a3.12,3.12,0,0,0-3.12-3.12H55.79a3.13,3.13,0,0,0-3.12,3.12V94a3.14,3.14,0,0,0,3.12,3.12h1.94L54,116H68.76L65.19,97.11ZM0,116C1.47,97-2.26,97.77,13.65,91.82A122.36,122.36,0,0,0,36,80.51L49.6,116ZM87.54,78.9a91.08,91.08,0,0,0,20.61,10.29C123,94.13,123,94.82,122.86,116H73.45L87.54,78.9Z"/>
</svg>

<svg xmlns="http://www.w3.org/2000/svg" style="transform: scaleY(-1)" viewBox="0 0 200 200">
  <linearGradient id="a8">
  <stop offset="0" stop-color="currentColor" stop-opacity="0"></stop>
  <stop offset="1" stop-color="currentColor"></stop>
  </linearGradient>
  <circle
  transform-origin="center"
  fill="none"
  opacity=".05"
  stroke="currentColor"
  stroke-width="20"
  stroke-linecap="round"
  cx="100"
  cy="100"
  r="70"></circle>
  <circle
  fill="none"
  stroke="url(#a8)"
  stroke-width="20"
  stroke-linecap="round"
  stroke-dasharray="0 44 0 44 0 44 0 44 0 360"
  cx="100"
  cy="100"
  r="70"
  transform-origin="center">
  <animateTransform
    type="rotate"
    attributeName="transform"
    calcMode="discrete"
    dur="1.5"
    values="360;324;288;252;216;180;144;108;72;36"
    repeatCount="indefinite"></animateTransform>
  </circle>
</svg>
<svg fill="currentColor" viewBox="0 0 123 65" id="arrow-triangle">
	<path d="M66.18,29.742c-2.301-2.3-6.101-2.3-8.401,0l-56,56c-3.8,3.801-1.1,10.2,4.2,10.2h112c5.3,0,8-6.399,4.2-10.2L66.18,29.742
		z"/>
</svg>
